<?xml version="1.0" encoding="utf-8"?>
<!-- Generator: Adobe Illustrator 19.0.0, SVG Export Plug-In . SVG Version: 6.00 Build 0)  -->
<svg version="1.1" id="Layer_1" xmlns="http://www.w3.org/2000/svg" xmlns:xlink="http://www.w3.org/1999/xlink" x="0px" y="0px"
	 viewBox="0 0 500 500" style="enable-background:new 0 0 500 500;" xml:space="preserve">
<style type="text/css">
	.st0{display:none;}
	.st1{display:inline;fill:#CE1F44;}
	.st2{display:inline;fill:#FFFFFF;}
	.st3{opacity:0.9;}
	.st4{fill:#1078BD;}
	.st5{fill:#E41E2B;}
	.st6{fill:#F8AE1F;}
	.st7{fill:#221E1F;}
	.st8{fill:#195F82;}
</style>
<g id="Background" class="st0">
	<rect x="537" class="st1" width="500" height="25"/>
	<rect x="537" y="25" class="st2" width="500" height="25"/>
	<rect x="537" y="50" class="st1" width="500" height="25"/>
	<rect x="537" y="75" class="st2" width="500" height="25"/>
	<rect x="537" y="100" class="st1" width="500" height="25"/>
	<rect x="537" y="125" class="st2" width="500" height="25"/>
	<rect x="537" y="150" class="st1" width="500" height="25"/>
	<rect x="537" y="175" class="st2" width="500" height="25"/>
	<rect x="537" y="200" class="st1" width="500" height="25"/>
	<rect x="537" y="225" class="st2" width="500" height="25"/>
	<rect x="537" y="250" class="st1" width="500" height="25"/>
	<rect x="537" y="275" class="st2" width="500" height="25"/>
	<rect x="537" y="300" class="st1" width="500" height="25"/>
	<rect x="537" y="325" class="st2" width="500" height="25"/>
	<rect x="537" y="350" class="st1" width="500" height="25"/>
	<rect x="537" y="375" class="st2" width="500" height="25"/>
	<rect x="537" y="400" class="st1" width="500" height="25"/>
	<rect x="537" y="425" class="st2" width="500" height="25"/>
	<rect x="537" y="450" class="st1" width="500" height="25"/>
	<rect x="537" y="475" class="st2" width="500" height="25"/>
</g>
<g id="XMLID_15_">
	<g id="XMLID_17_">
		<g id="logo_UHP_5_" class="st3">
			<g>
				<path id="XMLID_474_" class="st4" d="M140.5,246.3c0.1-1-0.4-1.8-0.7-2.7c-0.7-2.6-1-5.3-1.2-8c-1.4-14.7-2-29.5-2.1-44.3
					c-0.1-4.7-0.2-9.4,0.1-14.2c0.1-2.1,0.4-4.1,0.8-6.2c0.7-3.1,2.5-5.2,5.2-6.7c2.4-1.2,4.9-1.6,7.6-1.7c4.3-0.1,8.6,0.3,12.9,0.8
					c1.9,0.2,3.7,0.4,5.6,0.1c1.3-0.2,2.4,0.2,3.5,1.1c1.8,1.4,2.8,3,3.3,5.4c0.6,3.1,0.8,6.2,0.8,9.4c0,1.2,0.1,2.5,0.2,3.7
					c0.2,2.4-0.1,4.7,0.2,7.1c0.1,1.2-0.5,2.3-0.5,3.5c0,1.9-0.1,3.8-0.3,5.7c-0.2,1.7,0,1.9,1.5,2.5c1.6,0.6,3.3,0.6,4.9,0.9
					c3.1,0.5,6.2,0.5,9.2,0.7c1.7,0.1,3.5,0,5.2,0.2c3.3,0.4,6.5,0,9.7,0.4c0.7,0.1,0.9-0.1,1-0.7c0.5-3.4,1-6.9,0.2-10.2
					c-0.6-2.6-1.2-5.2-2-7.8c-1.5-4.7-1.9-9.4-1.6-14.3c0.1-1,0.4-1.8,0.9-2.6c1.1-1.8,2.5-2.8,4.6-3.2c3.7-0.8,7.5-0.8,11.2-0.4
					c1.5,0.2,2.9,0.9,4.4,0.3c0.1-0.1,0.4,0.2,0.6,0.3c0.4,0.3,0.8,0.4,1.3,0.3c1.8-0.4,3.6,0.2,5.4,0.3c1.5,0.1,3.1,0.2,4.6,0.2
					c0.7,0,1.2,0.2,1.6,0.7c0.8,0.8,1.7,1.6,2.5,2.4c0.5,0.5,1.2,0.9,0.6,1.8c-0.1,0.1-0.1,0.4,0,0.5c0.9,1.6,0.6,3.4,0.6,5.1
					c0,0.1,0,0.1,0,0.2c0,2.1,1.1,4,0.7,6.2c0.9,1.6,0.6,3.4,0.6,5.1c0,1.7,0.1,3.5-0.1,5.2c-0.2,1.9,0,3.9-0.5,5.8
					c-0.4,1.3,0,2.8-0.4,4.1c-0.2,0.6,0.3,0.8,0.8,0.7c1.4-0.1,2.8,0,4.1-0.4c3.1-0.8,6.3-0.5,9.4-0.1c2.8,0.4,5.6,1,8.4,1.4
					c1.6,0.2,3.2,0.4,4.8,0.5c1.3,0.1,1.4,0.1,1.3-1.2c-0.1-2.9,0.1-5.7-0.7-8.5c-0.3-1.2-0.5-2.5-0.6-3.8c-0.1-1.7-0.8-3.4-1.1-5.1
					c-0.4-2.5-0.6-5-1-7.5c-0.1-0.6-0.2-1.2,0-1.8c0.2-0.7,0.1-1.3-0.1-2c-0.2-0.6-0.3-1.2-0.4-1.8c-0.1-1.6,0.1-3.1,1.3-4.4
					c1.6-1.7,3.3-2.7,5.7-2.7c3.6-0.1,7.1-1.2,10.6-1.7c3.7-0.5,7.4-1.2,11.2-0.5c1.6,0.3,3.1,0.6,4.7,1.1c1.1,0.3,2.8,2.8,2.9,4
					c0,1-0.1,2,0.5,2.9c0.2,0.3,0.2,0.8,0.1,1.2c-0.3,1.2,0,2.4,0.1,3.7c0.4,3.2,0.9,6.3,1.2,9.5c0.4,3.4,0.4,6.9,0.6,10.4
					c0,0.1,0,0.2,0,0.3c-1.1,4.5-0.3,9-0.1,13.4c0.2,5.8,0.3,11.6,0.2,17.4c0,1.7,0,3.4,0.6,5.2c0.3,0.9,0.3,2.2,0,3.2
					c-0.4,1.8,0,3.6-0.1,5.3c-0.2,3.4,0.4,6.8-0.2,10.2c-0.2,1.1,0,2.2,0.1,3.3c0.3,3.5,0,7.1,0.1,10.6c0,1,0.1,2.1,0.3,3.1
					c0,0.2,0.1,0.4,0.1,0.7c-0.2,1.9-0.2,3.8,0.2,5.6c0.2,1.2,0.2,2.4-0.2,3.7c-0.2,0.6-0.2,1.2-0.1,1.8c0.4,3.4,0.4,6.8,0.4,10.3
					c0,0.7,0,1.5,0.2,2.2c0.1,0.6,0.2,1.3,0,1.8c-0.6,2-0.4,4-0.3,6c0.1,1.3,0.2,2.6-0.2,3.8c-0.2,0.4,0,1,0.1,1.5
					c0.2,1.9,0.4,3.9-0.1,5.8c-0.1,0.3,0.1,0.5,0.1,0.8c0.3,1,0.3,2,0.1,3c-0.2,1.2-0.2,2.4-0.1,3.7c0.2,1.6,0.1,3.2-0.5,4.8
					c-0.1,0.3-0.1,0.7,0,1c0.4,1.1,0.2,2.2-0.2,3.3c-0.3,1-0.2,2-0.1,3c0.2,2.1-0.2,4.2-0.1,6.4c0.1,2.2-0.1,4.3-0.4,6.4
					c-0.3,1.6-0.5,3.3-0.8,4.9c-0.2,0.8,0,1.6,0.1,2.3c0.1,0.8,0.3,1.7,0.3,2.5c0,0.4,0.4,1.2-0.6,1.1c0,0-0.1,0.1-0.1,0.1
					c0.5,1-0.4,1.8-0.4,2.7c0,1-0.5,1.9-0.3,2.8c0.4,2-0.3,3.8-0.3,5.7c0,0.1-0.1,0.3-0.2,0.6c-0.3-0.8-0.4-1.4-0.3-1.9
					c0.2-0.9-0.1-1.9,0.2-2.9c0.2-0.7,0.3-1.6-0.4-2.4c-0.4-0.4-0.3-1.2-0.1-1.6c0.9-1.2,0.5-2.6,0.4-3.9c0-0.7-0.3-1.3-0.2-2
					c0.4,0.1,0.8,0.5,1-0.2c0.2-0.5,0.2-1,0.1-1.5c-0.6-2.7-0.5-5.4-0.3-8c0.1-1.7,0-3.4,0.2-5c0.3-2.7,0.3-5.4,0.4-8.1
					c0-1.1,0.1-2.2-0.8-3.1c-0.3-0.3-1-1.6,0.5-2.1c0.3-0.1,0.1-0.9,0.1-1.4c-0.1-1.5,0.1-3,0.5-4.5c0.1-0.3,0.3-0.6,0.1-0.8
					c-0.5-1.1-0.4-2.4-0.8-3.6c-0.3-1.1-1-2.2-0.5-3.4c0.1-0.3-0.1-0.7-0.2-1.1c-0.1-0.1,0.4-0.1,0.2,0c-0.4,0.1,0.6,0.5,1.3,0.5
					c0.1-0.7,0.3-1.4,0-2.2c-0.1-0.3-0.2-0.6,0-0.9c0.3-0.8,0.3-1.5-0.6-1.9c-0.4-0.2-0.6-0.9-0.3-1.5c0.5-1.1,0.3-2.2,0-3.3
					c-0.4-1.8-0.8-3.6-0.6-5.4c0.1-1.8,0-3.5,0.5-5.3c0.3-0.9-0.2-2-0.3-3c-0.3-1.6-0.3-3.1,0.1-4.7c0.2-0.8,0-1.7-0.2-2.5
					c-0.5-2.1-0.2-4.2-0.1-6.2c0.1-1.7-0.1-3.3-0.2-4.9c-0.3-2.9-0.5-5.7-0.2-8.5c0-0.5,0-0.5-0.7-1.7c-0.1-0.1-0.1-0.3-0.1-0.5
					c0-1.2,0-2.5,0.4-3.7c0.3-0.7,0.2-1.4,0.1-2.1c-0.4-2.2-0.9-4.4-1.2-6.6c-0.1-0.6-0.9-0.4-0.7-1.1c0.1-0.5,0-1.1-0.1-1.7
					c0-0.9,0-1.9,0.5-2.8c0.3-0.5,0.5-1.1,0.2-1.8c-0.1-0.1-0.2-0.3-0.1-0.5c0.9-1.2,0.4-2.4,0.2-3.7c-0.2-1.2,0.1-2.5,0-3.7
					c-0.1-1.7,0.2-3.5-0.3-5.1c-0.3-1-0.3-2-0.2-3.1c0.2-1.2,0.2-2.5-0.4-3.7c-0.4-0.9-0.6-2.3-0.2-3.4c0.5-1.2,0.4-2.2,0-3.4
					c-0.6-2.2-0.8-4.4-0.6-6.7c0-0.5,0.1-1,0-1.5c-0.2-0.9-0.2-1.8,0-2.7c0.5-1.7,0.4-3.5,0.1-5.2c-0.3-1.6-0.4-3.2-0.5-4.9
					c-0.1-1-0.8-1.9-0.4-3.1c0.3-1,0-2.2,0-3.3c0-0.5-0.1-1-0.3-1.5c-0.3-0.7-0.6-1.5,0.2-2.1c0.3-0.3,0.2-0.7,0-0.9
					c-0.8-0.8-0.5-1.9-0.8-2.9c-0.1-0.2-0.1-0.5,0-0.7c1.1-1.4,0.2-2.9,0.4-4.4c0.1-0.4-0.2-0.6-0.6-0.7c-0.4-0.1-0.8-0.1-1.3-0.2
					c0.1-0.2,0.4-0.4,0.6-0.6c-0.1-0.1-0.1-0.2-0.2-0.2c-1.1,0-2.2-0.2-3.1,0.6c-0.2,0.2-0.8,0.1-1.1,0.1c-2.8-0.2-5.6,0.5-8.4,0.7
					c-0.4,0-1.1,0-1.3,0.8c-0.1,0.4-0.6,0.4-1,0.4c-2.2,0-4.2,0.6-6.4,0.7c-1.2,0.1-1.6,0.5-1.5,1.7c0.1,1.8,0,3.7,0.5,5.5
					c0.1,0.2,0,0.5,0.1,0.7c1.3,2.3,1.4,4.9,2.5,7.3c0.8,1.8,1.5,3.6,1.1,5.7c0,0.2,0,0.3,0.1,0.5c0.9,2.1,0.7,4.3,0.8,6.5
					c0,1.2,0,2.3-0.3,3.5c-0.3,1.2-0.3,2.4-0.3,3.7c0,0.9-0.5,1.6-1,2.2c-0.2,0.2-0.5,0.3-0.6,0.6c-1.5,2.3-3.8,2.7-6.3,2.8
					c-3.5,0.2-6.8-0.4-10.2-0.8c-3.3-0.4-6.7-1.1-10.1-0.8c-1.7,0.1-3.4,0.2-5.1,0.5c-2.3,0.4-4.5-0.2-6.7-0.7
					c-2.6-0.7-4.3-3.3-4.5-6.4c-0.1-2.1,0.3-4.3,0.4-6.4c0-0.6,0.3-1.2,0-1.8c0-0.1-0.1-0.2,0-0.3c1.1-2.1,0.2-4.4,1-6.5
					c0.2-0.5,0.3-1,0.1-1.5c-0.6-1.3-0.4-2.8-0.5-4.2c0-1.8-0.2-3.6-0.5-5.4c-0.1-1-0.3-1.9,0-3c0.4-1.2-0.6-2.3-2.1-2.4
					c-2.2-0.1-4.3-0.1-6.5-0.4c-0.5-0.1-1,0-1.4-0.3c-1.2-0.9-2.6-0.9-3.9-0.5c-0.3,0.1-0.7,0.1-1,0c-2.2-0.8-4.3,0.1-6.5,0.1
					c-0.9,0-1.1,0.5-1,1.3c0.3,4.8,0.7,9.5,2.3,14.1c0.9,2.6,1.2,5.4,1.3,8.3c0,3,0.2,5.9-0.3,8.9c-0.6,3.9-1.5,5.3-4.9,7.2
					c-0.4,0.2-0.9,0.4-1.3,0.2c-1.1-0.5-2.2-0.3-3.3-0.3c-3.7,0-7.4-0.7-11.1-0.9c-0.7-0.1-1.3-0.2-2-0.1c-3.5,0.2-7-0.3-10.4-0.3
					c-1.9,0-3.7-0.3-5.5-1.1c-0.4-0.2-0.8-0.4-1.1-0.3c-1.4,0.3-2.4-0.5-3.6-1c-0.6-0.3-1.2-0.7-1.8-0.9c-2.4-0.8-3.4-2.6-3.6-5
					c-0.2-2.4,0.2-4.7,0.5-7.1c0.9-7.2,1.2-14.3-0.2-21.5c-0.1-0.3-0.1-0.5-0.2-0.8c-0.1-0.8-0.5-1.2-1.4-1.2
					c-2.8-0.2-5.5-0.5-8.3-0.8c-2.8-0.3-5.6-0.6-8.4-0.4c-3.5,0.2-3.6,0.2-4,3.8c-0.5,4.2-0.8,8.5-0.8,12.8
					c-0.1,5.9-0.8,11.7-0.9,17.6c-0.1,3.8-0.5,7.6-1.1,11.4c-0.2,1-0.4,2,0,3c0.1,0.2,0.1,0.6,0.1,0.8c-0.5,2.7-0.1,5.4-0.2,8.1
					c0,0.2,0.1,0.5,0,0.7c-0.9,2-0.3,4-0.3,6c0,1-0.1,1.9-0.7,2.7c-0.8,1.2-0.9,2.5-0.3,3.7c0.6,1.3-0.1,2.8,0.5,4.1
					C141.5,246.3,140.9,246.3,140.5,246.3L140.5,246.3z"/>
				<path id="XMLID_473_" class="st4" d="M447.4,312.3c-0.6,0.8-1.2,1.5-2.3,1.5c-0.3,0-0.7,0.3-0.7,0.6c-0.1,0.8-0.5,1-1.2,0.9
					c-0.9-0.1-1.3,0.7-1.9,1.2c-0.3,0.2-0.5,0.6-0.8-0.1c-0.3-0.6-0.8-0.3-1.1,0.1c-2,2.3-4.9,3.1-7.5,4.4c-1,0.5-2.1,0.9-3,1.5
					c-0.4,0.2-1.1,0.4-0.8,1.2c0.1,0.3-0.5,0.8-0.6,0.7c-1.1-0.8-1.7,0.6-2.7,0.6c-1.7,0-2.6,1.2-3.5,2.6c-0.5,0.8-1,0.9-1.5,0.2
					c-0.5-0.7-0.9-0.6-1.3-0.2c-0.3,0.3-0.6,0.4-1,0.5c-0.2,0.1-0.5,0.2-0.4,0.4c0.5,1.1-0.2,1.1-1,1.2c-0.4,0-0.8,0.4-1.2,0.9
					c-1.1,1.6-2.9,2.2-4.6,2.7c-0.2,0.1-0.6-0.1-0.8,0.1c-1.4,1.8-4,1.6-5.5,3.3c-0.3,0.3-0.8,0.4-1.2,0.5c-1.5,0.5-2.8,1.2-4,2.1
					c-0.9,0.7-2,1.2-3.1,1.6c-0.6,0.2-1.4,0.1-1.4,1.2c0,0.4-0.9,0.6-1.4,0.6c-1.1-0.1-1.8,0.4-2.4,1.1c-0.8,0.8-1.7,1.5-2.2,2.6
					c-0.3,0.7-1.2,1-2,1c-1.4-0.1-2.8,0-3.9,1.1c-0.3,0.3-0.9,0.4-1.4,0.6c-1.1,0.6-2.4,0.8-3.1,2c-0.1,0.1-0.2,0.3-0.4,0.3
					c-1.4-0.1-2.2,1-3.1,1.9c-0.2,0.2-0.5,0.5-0.7,0.4c-1.3-0.3-1.8,0.8-2.6,1.4c-1.5,1.3-3.2,2.3-5.2,2.8c-0.3,0.1-0.7,0.1-0.9,0.3
					c-1.2,1.1-2.5,2-3.8,2.9c-0.3,0.2-0.4,0.4-0.8,0.5c-1,0.3-2,0.5-2.6,1.3c-0.6,0.8-1.4-0.4-1.7,0.3c-0.3,0.6-0.9,1.2-1.3,1.1
					c-1-0.3-1.7,0.2-2.5,0.5c-0.7,0.3-1.2,0.9-2,1.2c-0.3,0.1-0.3,1.1-0.9,1.3c0-0.3,0-0.5,0-0.9c-0.6-0.1-1.1,0.5-1.2,0.8
					c-0.3,1.2-1.4,1.4-2.3,1.8c-1,0.5-2,1-2.9,1.5c-0.1,0.1-0.2,0.1-0.3,0.2c-0.8,1.9-2.8,1.9-4.3,2.7c-2,1-3.6,2.6-5.8,3.2
					c-0.4,0.1-0.9,0.4-1.1,0.8c-0.7,1.4-2.2,2-3.2,3.1c-0.8,0.9-1.6,1.5-2.8,1.9c-1,0.3-1.8,1.3-2.8,1.7c-1.5,0.7-3,1.4-4.7,1.7
					c-0.8,0.1-1.5,0.7-2.1,1.3c-0.6,0.6-1.2,1-1.9,1.3c-1,0.6-2,1.1-3,1.7c-4.1,2.5-8.2,5-12.7,6.8c-2.2,0.9-4.1,2.3-6.3,3
					c-0.3,0.1-0.6,0.3-0.7,0.6c-0.3,0.6-0.8,0.7-1.3,1c-1.1,0.6-2.3,1.1-3.4,1.7c-0.4,0.2-0.8,0.4-1.3,0.4c-0.5,0-1.1,0-0.9,0.8
					c0.1,0.3-0.1,0.4-0.4,0.4c-2.3,0.6-4.1,2.1-6.1,3.4c-0.7,0.4-1.3,1.1-2.3,0.8c-0.3-0.1-0.5,0.2-0.7,0.3
					c-2.9,2.3-6.3,3.8-9.4,5.7c-1.4,0.8-2.9,1.5-4.4,2c-0.5,0.2-1,0.4-1.5,0.7c-2,1.3-4,2.4-6,3.5c-1.7,0.9-3.2,2.1-5,3
					c-3.6,1.8-7,4-10.7,5.7c-1.9,0.9-3.6,2.5-5.8,2.8c-0.1,0-0.2,0-0.3,0.1c-2.8,2.7-6.4,3.9-9.7,5.6c-5.8,3.1-11.5,6.3-17.4,9.1
					c-2,1-3.9,2-6,2.7c-0.2,0.1-0.4,0.2-0.6,0.3c-2.5,2.1-5.5,3.3-8.4,4.7c-4.9,2.3-10,4.2-15.2,5.7c-0.8,0.2-1.8,0.3-2.5,0.7
					c-0.7,0.4-1.4,0.6-2,1c-2,1.2-4.5,1.4-6.4,2.7c-0.6,0.4-1.3,0.4-1.9,0.1c-0.7-0.4-1.3-0.1-1.6,0.4c-0.4,0.7-1.1,1-1.8,1.4
					c-0.3,0.2-0.4,0.4-0.6,0.1c-0.2-0.2-0.1-0.4,0.1-0.7c0.9-1.3,1.9-2.3,3.1-3.2c4.5-3.4,9.4-6.4,14.3-9.2
					c11.3-6.6,22.9-12.8,34.5-18.8c0.7-0.4,1.5-0.6,2.3-0.9c2.1-0.7,4-2.1,6-3.2c1.5-0.8,2.9-1.7,4.3-2.4c2.7-1.5,5.4-3,8.1-4.5
					c1.9-1,3.9-1.9,5.8-2.8c1.2-0.6,2.5-1.1,3.6-2c1.3-1,2.4-2.1,4.2-2.2c0.2,0,0.4-0.2,0.6-0.3c1.8-1.5,3.9-2.5,6.1-3.4
					c2-0.8,3.8-2,5.6-3.2c4.3-2.8,9-4.8,13.6-7.1c1.3-0.7,2.7-1.3,3.9-2.3c1.2-0.9,2.7-1.5,4.1-2.2c0.9-0.4,1.8-0.7,2.5-1.5
					c0.3-0.4,0.8-0.5,1.3-0.6c0.9-0.1,1.6-0.7,2.4-1.1c1.5-0.8,2.6-2.2,4.3-2.5c0.3-0.1,0.5-0.1,0.7-0.4c0.8-1.1,2.1-1.3,3.2-1.9
					c3.5-1.8,7.1-3.4,10.1-5.9c0.3-0.2,0.6-0.4,0.9-0.5c4.2-2.1,8.2-4.5,12.5-6.1c1.5-0.5,2.7-1.4,4-2.2c2.9-1.8,5.9-3.3,8.8-4.9
					c1.2-0.7,2.5-1.1,3.7-2.1c1-0.9,2.5-1.2,3.7-1.8c2.3-1.2,4.6-2.5,6.8-3.8c1.8-1,3.7-1.8,5.7-2.3c0.8-0.2,1.5-0.4,1.9-1.2
					c0.1-0.1,0.2-0.3,0.4-0.3c3.8-1.4,7.1-3.8,10.6-5.7c0.7-0.4,1.4-0.8,2.3-0.9c1.7-0.3,3-1.5,4.4-2.3c3.1-1.8,6.3-3.7,9.7-4.9
					c0.9-0.3,1.9-0.8,2.4-1.7c0.2-0.4,0.6-0.5,1-0.6c3.1-0.9,5.7-2.9,8.8-3.7c0.5-0.1,0.9-0.4,1.3-0.7c2.2-1.5,4.9-2.2,7.1-3.8
					c0.9-0.7,2.1-1,3.1-1.8c0.2-0.2,0.5-0.3,0.7-0.4c3-0.7,5.3-2.6,7.9-4.1c0.4-0.2,0.8-0.5,1.2-0.5c1.1,0.1,1.8-0.6,2.7-1.1
					c1.8-1,3.7-1.7,5.4-2.8c1.3-0.9,3-1.1,4.2-2.2c0.2-0.1,0.4-0.3,0.5-0.3c1.5,0,2.7-1.2,4.2-1.3c0.5,0,1.1-0.5,1.6-0.9
					c1.5-1,3.1-1.8,4.7-2.5c1.1-0.5,2.4-0.8,3.6-1.1c0.6-0.1,1.1-0.3,1.4-0.8c0.7-1.1,1.9-1.2,2.8-1.1c0.9,0.1,1.7-0.4,2.2-0.8
					C445.2,312.9,446.3,312.7,447.4,312.3z"/>
				<path id="XMLID_472_" class="st5" d="M187.3,339.6c0-0.2,0.1-0.5,0-0.7c-0.6-1.3,0.1-2.4,0.5-3.6c0.2-0.6,1.1-1.2,0.1-1.9
					c-0.1-0.1,0.1-0.4,0.2-0.6c0.5-1.4,1.8-2.4,1.6-4c0,0,0-0.1,0.1-0.1c1.6-1.6,1-3.7,1.2-5.7c0.1-0.8-0.1-1.6,0.8-2.1
					c0.1,0,0.1-0.2,0.1-0.3c0.2-1.9,1.4-3.3,2.7-4.5c0.3-0.3,0.4-0.8,0.5-1.2c0.9-3.3,2.6-6.2,4-9.2c0.5-1,1.5-1.7,2.1-2.6
					c0.9-1.4,1.6-3,2.9-4.1c-0.1-1.5,1.2-2.2,1.8-3.3c0.3-0.4,0.5-0.9,1-1c0.4-0.1,0.5-0.3,0.2-0.7c-0.3-0.4,0.2-0.6,0.4-0.8
					c0.7-0.7,1.1-1.5,1.6-2.3c0.5-0.9,0.8-1.9,1.9-2.4c0.6-0.3,0.7-1.4,1.3-2.1c1.7-2.2,3-4.7,5.3-6.4c0.6-0.4,1-0.9,1.3-1.5
					c0.4-0.7,1-1.4,1.6-1.9c0.8-0.7,1.3-1.6,2-2.4c1.2-1.5,2.6-2.9,3.9-4.3c1.7-1.7,3.4-3.4,5.4-4.7c1.4-1,2.2-2.5,3.7-3.4
					c1.5-1,2.8-2.1,4.3-3.2c1.4-1,2.7-2.1,4.2-3c2.8-1.8,5.6-3.6,8.7-4.8c0.9-0.3,1.6-1,2.4-1.3c2.5-1.1,5.1-1.8,7.9-0.8
					c4.2,1.4,7,4.2,8.6,8.4c0.2,0.5,0.7,0.7,0.9,1.2c0.8,1.6,1.6,3.3,2.4,5c0.2,0.4,0,0.7-0.1,1.1c-0.4,0.8-0.2,1.4,0.5,1.8
					c0.7,0.4,1.5,0.1,2-0.6c0.4-0.6,0.6-1.3-0.3-1.7c-0.4-0.2-0.4-0.7-0.6-0.9c-0.4-0.4,0-0.5,0.2-0.6c0.6-0.1,2.1,1,2.2,1.6
					c0.2,1.3-0.6,2.5-2,2.6c-1.8,0.2-3.5,0-4.8-1.6c-1.5-1.8-3.2-3.5-5-5.1c-1.1-1-2.4-1.9-3.7-2.5c-1.4-0.7-2.7-0.8-4.2-0.2
					c-3.5,1.4-6.6,3.4-9.8,5.4c-0.7,0.4-1.3,0.8-2.1,1c-0.7,0.2-1.2,0.6-1.8,1.1c-1.8,1.6-3.8,3-5.5,4.7c-2.1,2-4.4,3.8-6.7,5.7
					c-0.5,0.4-0.9,1-1.3,1.5c-0.4,0.7-0.8,1.5-1.7,1.7c-0.3,0.1-0.4,0.3-0.6,0.6c-0.8,1.3-1.9,2.4-3.1,3.3c-0.9,0.7-1.5,1.7-2.1,2.6
					c-1.5,2.4-3.5,4.3-5.4,6.4c-1.4,1.6-2.5,3.3-3.7,5c-1.1,1.7-2.6,3.2-3.5,5c-1,1.9-2.1,3.8-3.2,5.6c-0.9,1.3-1.8,2.6-2.3,4.1
					c-0.8,2.6-2.4,4.6-3.5,7c-0.3,0.7-0.7,1.3-1.2,1.8c-1,1.1-1.7,2.5-2.1,3.9c-0.7,2.3-1.9,4.3-2.7,6.6c-1,2.9-2.6,5.6-3.4,8.6
					c-0.2,0.8-0.5,1.6-1,2.2c-1.1,1.1-1.5,2.6-1.9,4c-0.6,1.8-1.2,3.7-1.7,5.6c-0.2,0.9-0.4,1.7-1,2.4c-0.3,0.3-0.3,0.8-0.4,1.3
					c-0.6,2.7-1,5.5-2.3,8c-0.1,0.3-0.3,0.6-0.3,1c0.2,2.5-1.3,4.5-1.9,6.8c-0.6,2.1-1.2,4.2-1.7,6.4c-0.3,1.3-0.3,2.7-0.9,4.1
					c-0.6,1.3-0.5,2.9-0.7,4.4c0,0.2,0.1,0.6,0,0.6c-1.1,1-0.4,2.6-1.1,3.7c-0.1,0.2-0.1,0.4-0.1,0.6c-0.3,2.2-0.4,4.4-1.2,6.5
					c-0.6,1.6-1,3.4-0.8,5.2c0,0.6-0.2,1.3-0.6,1.9c-0.6,1-1.1,1.9-0.4,3.1c0.2,0.3,0,0.5-0.3,0.6c-0.1-0.1-0.3-0.2-0.4,0
					c-0.1,0.2,0,0.2,0.2,0.3c-0.6,0.4-1,1.2-0.8,1.8c0.3,0.9-0.5,1.3-0.3,2c-0.6-0.3-0.5-0.7-0.4-1.1c0.1-0.5,0.4-1-0.2-1.3
					c-0.3-0.2-0.1-0.4,0-0.5c0.3-0.4,0.4-0.9,0.1-1.4c-0.2-0.5-0.1-0.7,0.5-0.7c0.4,0,0.5-0.4,0.4-0.8c-0.8-1.7-0.1-3.3,0.1-4.9
					c0.1-0.7,0.3-1.5,0.5-2.2c0.1-0.3,0.1-0.7,0-1c-0.3-1-0.3-2.1,0.3-2.9c0.6-0.8,0.5-1.5,0-2.2c-0.1-0.2-0.2-0.4-0.3-0.6
					c-0.3-0.5-0.1-0.8,0.4-0.8c0.3,0,1,0.3,1-0.2c0-0.5,0.7-1.3-0.4-1.6c-0.2-0.1-0.4-0.3-0.2-0.5c0.6-0.6,0.2-1.2,0-1.8
					c-0.3-1,0-1.9,0.5-2.7c0.3-0.5,0.4-0.9,0.3-1.5c-0.1-0.5,0-0.9,0.2-1.3c0.1-0.2,0.3-0.4,0.3-0.6c-0.2-2,1.2-3.7,0.9-5.7
					c-0.1-0.7,0.3-1.3,0.6-1.9c0.1-0.4,0.5-0.8-0.2-1c-0.3-0.1-0.1-0.5,0.1-0.7c1.4-1.3,0.7-2.8,0.1-4.1c-0.3-0.7-0.2-1.2,0.3-1.5
					c1.9-1.2,1.7-3.3,2.2-5.1c0.1-0.5,0-1.1,0.4-1.7c0.2-0.2,0.2-0.6,0-0.9c-0.3-0.5-0.1-1,0.2-1.2c0.6-0.5,0.5-0.9,0.4-1.6
					c-0.2-1.3,0.1-2.7,1-3.8c0.3-0.4,0.5-0.8,0.4-1.2c-0.3-2,0.7-3.7,1.3-5.4c0.2-0.4,0.6-0.8,0.6-1.4c0-0.1,0.1-0.4,0.2-0.4
					c1-0.1,1-1.1,1.4-1.7c0.2-0.2,0.1-0.3,0-0.5c0-0.1,0.1-0.1,0.2-0.2C187.1,340.3,187.3,340,187.3,339.6z"/>
				<path id="XMLID_471_" class="st6" d="M275,387.5c-0.5,0.7-1.1,1.6-1.8,1.6c-0.9,0-1.3,0.6-1.9,0.9c-0.7,0.4-1.5,0.7-2.3,0.9
					c-0.8,0.2-0.5,0.7-0.4,1.2c-2-0.2-2-0.2-2.4,1.4c-0.6-0.1-0.5-0.8-1-1c-0.1,0.1-0.3,0.2-0.3,0.2c0,0.8-0.7,1.2-0.9,1.8
					c-0.1,0.3-0.4,0.5-0.7,0.6c-1.8,0.4-3.4,1.2-4.8,2.4c-0.9-0.2-1.1,1.3-2,1c-0.3-0.1-0.4,0.3-0.6,0.5c-0.3,0.5-0.3,1.2-0.4,1.9
					c-2-1.2-3.2,0.3-4.5,1.2c-1.1,0.7-1.7,2.2-3.3,2.3c-0.1,0-0.3,0.2-0.4,0.3c-0.8,1.4-2.2,1.6-3.6,1.6c-0.5,0-1,0.3-1,0.7
					c-0.1,0.7-0.6,0.8-0.9,1c-0.6,0.5-1.3,0.8-1.9,1.5c-0.5,0.7-1.7,0.9-2.5,1.4c-0.4,0.3-0.8,0.4-0.9,1c-0.6,2-1.9,3-3.9,3.1
					c-0.3,0-0.6-0.1-0.8,0.2c-0.6,1-1.6,1.3-2.4,2c-0.9,0.8-1.9,1.4-3.1,1.7c-1.1,0.3-2.2,0.8-3.2,1.6c-0.5,0.5-1.4,0.6-2.1,1
					c-1.6,1-3.2,2-4.8,3c-1.1,0.6-2.1,1.4-3.4,1.7c-0.8,0.1-1.6,0.9-2.2,1.4c-1.9,1.5-4.2,2.4-6.3,3.7c-2.2,1.3-4.4,2.4-6.6,3.6
					c-1.7,0.9-3.4,1.8-5.3,2.4c-0.3,0.1-0.7,0.2-0.9,0.4c-2,1.9-4.6,2.2-7.1,2.3c-1.9,0.1-3.7,0.4-5.5,0.6c-0.5,0.1-0.8,0.2-1.2-0.2
					c-0.3-0.3-0.5-0.3-0.8,0.1c-0.1,0.2-0.3,0.5-0.6,0.3c-0.2-0.1-0.2-0.4-0.2-0.6c0-0.7,0.2-1.4,0.7-2c1-1.3,2.2-2.3,3.5-3.3
					c3.8-2.8,7.8-5.2,12.1-6.9c2.6-1,4.8-2.6,7.2-3.9c0.6-0.3,1.3-0.6,2-0.8c0.7-0.3,1.2-0.7,1.8-1.1c0.8-0.7,1.8-1.2,2.8-1.6
					c1.1-0.4,2-1,2.8-1.7c0.5-0.4,1-0.7,1.6-0.9c2.1-0.7,4-2.1,6-3.1c2-1,3.8-2.6,5.9-3.4c0.4-0.1,0.7-0.4,0.9-0.7
					c1.4-1.5,3.2-2.3,5.2-2.8c0.7-0.2,1.2-0.6,1.7-0.9c2.5-1.8,5.3-3,7.8-4.5c0.1-0.1,0.3-0.2,0.5-0.2c2.2,0,3.7-1.4,5.4-2.5
					c0.9-0.6,2.1-0.5,2.9-1.3c0.8-0.8,1.8-1.3,2.9-1.4c0.1,0,0.3,0,0.3-0.1c1.5-1.8,3.8-1.5,5.6-2.5c0.5-0.3,1-0.7,1.6-0.9
					c2-0.7,3.8-2,5.8-2.6c0.4-0.1,0.8-0.4,1.2-0.6c1-0.5,1.9-1.1,3.1-1c0.5,0,0.9-0.2,1.4-0.5c0.7-0.4,1.4-0.9,2.3-0.6
					c0.4,0.1,0.8,0.1,1-0.4c0.1-0.2,0.2-0.5,0.4-0.3c0.8,0.7,1.4,0.1,2.1-0.2C274.6,387.4,274.8,387.5,275,387.5z"/>
				<g id="XMLID_427_">
					<path id="XMLID_470_" class="st7" d="M229.2,69.3c-1.6-0.5-3.2-1-4.8-1.5c-0.6-0.2-1.1-0.2-1.8,0.1c-1.8,0.8-3.8,0.6-5.7,0.2
						c-1.2-0.3-1.3-0.6-1-1.8c0.5-2.1,2.1-2.9,4-3.3c2.3-0.5,4.5,0,6.7,0.6c3.6,0.9,7.2,2.1,10.8,3c1.8,0.4,3.7,0.5,5.6,0.9
						c0.6,0.1,1.3,0.3,2.1,0.6c-0.8,1.5-1,3.4-3.1,3.7c1.8,4,6.8,3,8.6,0.9c0.4-0.5,0.4-1,0.3-1.6c-0.8-5.2-1.6-10.3-2.4-15.5
						c-0.5-3.4-1-6.8-1.6-10.2c-0.1-0.6-0.2-1.2-0.3-1.8c-0.4-1.8,0-3.6,1.1-5.1c0.7,0.2,0.9,0.8,1.2,1.3c1.2,2.2,2.3,4.5,3.3,6.8
						c0.1,0.3,0.2,0.5,0.2,0.8c0.1,0.4-0.1,0.6-0.4,0.9c-0.3,0.2-0.5,0-0.7-0.1c-0.2-0.2-0.4-0.5-1-0.5c0.4,2,0.7,3.9,1.1,5.9
						c0.9,4.8,1.8,9.6,2.1,14.5c0.1,2,0,3.9-0.5,5.8c-0.9,3.2-3.2,4.7-6.2,5c-2.5,0.2-4.6-0.9-6.1-3c-0.7-1-1.1-2.2-1.4-3.4
						c-0.3-1.2-0.3-1.2-1.6-1.1c-4,0.4-7.7,1.9-11.4,3.4c-3.5,1.5-7,3-10.8,3.7c-1.3,0.2-2.6,0.6-3.9,0.4c-2.2-0.3-3.8-1.4-5-3.4
						c-1,1.6-1.9,3.1-4,3.2c-2,0.1-3.4-0.6-3.9-2.7c-0.6,0.5-1,1-1.5,1.4c-0.9,0.9-2,1.5-3.3,1.7c-2,0.3-3.5-0.6-4.2-2.5
						c-0.2-0.5-0.3-0.9-0.5-1.5c-2.1,1.4-4.1,2.7-6.6,3.1c-2.3,0.4-4.7,1-7,0.2c-0.3,0.3-0.2,0.6-0.1,1c0.4,3.8-0.8,7-3.3,9.7
						c-4.3,4.4-9.5,7-15.5,8.1c-2.2,0.4-4.4,0.5-6.6,0c-3.2-0.7-5.2-2.5-6.2-5.6c-0.7-2.2-0.8-4.5-0.6-6.8c0.2-2.3,0.6-4.7,1.2-6.9
						c0.3-0.9,0.6-1.8,1.3-2.5c0.2-0.2,0.4-0.4,0.7-0.3c0.2,0.1,0.4,0.4,0.5,0.7c0,0.4-0.1,0.8-0.3,1.1c-0.8,2.8-1.2,5.6-1.1,8.5
						c0,1,0.1,1.9,0.4,2.8c0.8,3.1,2.9,4.8,6.1,5c4,0.2,7.7-1,11.3-2.6c3.2-1.5,6.1-3.3,8.6-5.8c1.2-1.2,1.4-2.6,1.1-4.1
						c-0.4-1.6-0.9-3.1-1.8-4.5c-0.6-0.9-0.7-1.9-0.3-2.9c0.3-0.8,0.4-1.6,1-2.5c0.9,0.4,1.5,1.1,1.9,1.9c0.7,1.3,1.8,1.7,3.3,1.9
						c4.5,0.6,8.5-0.7,12.1-3.5c0.5-0.4,1.1-0.8,1.7-1.1c0.8-0.4,1.4,0,1.3,0.9c0,0.4-0.2,0.9-0.3,1.3c-0.4,1.9,0.8,3,2.7,2.6
						c1.3-0.3,2.3-1.1,3.1-2.1c0.7-0.9,1.4-1.7,2.3-2.4c0.2-0.2,0.5-0.5,0.9-0.3c0.3,0.2,0.4,0.5,0.3,0.9c-0.1,0.4-0.1,0.9-0.1,1.3
						c0,0.7-0.1,1.6,0.7,1.9c0.7,0.3,1.5,0.3,2.2-0.1c0.8-0.4,1.1-1.1,1.4-1.8c0.3-0.8,0.7-1.6,1.3-2.3c0.2-0.3,0.5-0.5,0.8-0.4
						c0.3,0.2,0.6,0.5,0.6,0.9c0,0.3,0,0.6,0,0.8c0,1.2,0.6,2,1.6,2.6c0.9,0.5,1.9,0.8,2.9,0.7c5.9-0.2,11.4-2,16.5-4.8
						C229.2,69.5,229.2,69.4,229.2,69.3z"/>
					<path id="XMLID_465_" class="st7" d="M295.6,55.9c1.3-1.1,2.3-2.1,3.4-3c0.3-0.3,0.6-0.7,1.1-0.4c0.5,0.4,0.4,0.9,0.2,1.4
						c-0.5,1.9-1.5,3.5-2.9,4.8c-0.7,0.6-0.9,1.3-0.7,2.2c0.7,2.7,1,5.5,2,8.2c0.5,1.3,1.1,2.6,2,3.6c1.1,1.2,2.3,1.7,4,1.5
						c3.3-0.4,6.9-1.5,10-3.2c-1.2-1.8-3.6-2.8-5.6-2.2c-0.4,0.1-0.7,0.3-1-0.1c-0.3-0.4-0.3-0.7-0.1-1.1c0.4-1,0.9-2.1,1.3-3.1
						c0.2-0.6,0.8-0.7,1.3-0.9c4-1.7,8.1-1.9,12.3-0.8c1.3,0.3,2.6,0.6,3.8,1.2c1.4,0.7,1.7,1.4,1.4,2.9c-0.1,0.5-0.3,1.1-0.5,1.6
						c-0.2,0.7-0.6,1.1-1.3,1.4c-1,0.4-2,0.9-3,1.3c-0.2,0.1-0.4,0.2-0.7,0.4c1.6,1.4,3.4,2.1,5.4,2.5c1,0.2,2.1,0.3,3.1,0.1
						c2-0.3,3.5-1.2,4.3-3c0.8-1.9,2.4-3.2,3.5-4.9c0.4-0.6,1.1-1.1,1.8-1.4c1.5-0.6,3-0.3,4,1.1c1.5,2.2,2.4,5.7,0.6,8.9
						c-0.7,1.2-1.2,1.4-2.5,1.1c-1-0.2-2-0.6-3-1c-1-0.4-1.9-0.9-2.7-1.5c-0.7,0.5-1.1,1.3-1.4,2c-1.1,2.6-3.2,3.3-5.8,3.3
						c-3.9,0-7.5-1.1-10.5-3.9c-1.1-1.1-1.2-1-2.5-0.3c-3.1,1.7-6.2,3.1-9.7,3.7c-1.6,0.3-3.1,0.6-4.8,0.3c-2.3-0.5-4-1.7-5.2-3.8
						c-0.7-1.2-1.1-2.6-1.6-3.9c-0.1-0.5-0.3-0.9-0.5-1.6c-0.6,0.7-1,1.2-1.4,1.6c-1.8,2-3.9,3.1-6.6,2.8c-1.9-0.2-2.8-1.2-2.7-3.1
						c0.2-2.8,1.3-5.2,3.3-7.2c1.2-1.2,2.3-2.4,3.6-3.5c1-0.8,1.4-1.6,0.8-2.9c-0.8-1.8-0.4-3.5,0.4-5.2c0.1-0.2,0.2-0.5,0.4-0.7
						c0.5-0.7,0.9-0.7,1.2,0.1c0.3,0.8,0.5,1.6,0.8,2.4C295.3,54.4,295.4,55,295.6,55.9z M294,61c-2.1,1.9-4.2,3.7-6,5.8
						c-0.3,0.4-0.6,0.8-0.8,1.3c-0.7,1.3-0.2,2.1,1.2,2c2.2-0.2,4.2-1,5.8-2.6c0.8-0.7,1.1-1.7,0.9-2.8
						C294.9,63.5,294.6,62.2,294,61z M325.1,67.2c-4.2-1.8-8.3-2.5-12.9-0.9c2.5,1,4.8,2,6.7,3.5c0.3,0.2,0.5,0.1,0.7,0
						C321.4,68.9,323.2,68.1,325.1,67.2z M343.2,72.5c0.3-1,0.2-1.8,0.1-2.6c-0.2-1.2-1-1.9-2.1-2.1c-0.9-0.1-1.9,0.4-2.4,1.4
						c-0.3,0.5-0.3,0.9,0.2,1.3C340.2,71.5,341.6,72.1,343.2,72.5z"/>
					<path id="XMLID_464_" class="st7" d="M374.6,69.2c-1.6-0.5-3.1-0.9-4.6-1.4c-0.7-0.2-1.3-0.2-2,0.1c-1.9,0.7-3.8,0.6-5.7,0.1
						c-1-0.3-1.1-0.7-0.9-1.6c0.4-1.8,1.9-3,4.1-3.4c2.2-0.5,4.3,0,6.4,0.5c3.7,0.9,7.4,2.2,11.2,3c1.8,0.4,3.7,0.5,5.6,0.9
						c0.6,0.1,1.2,0.3,1.9,0.5c-0.1,1.3-0.8,2.2-1.6,3.2c-0.3,0.4-0.7,0.4-1,0.3c-6-1-11.3,1.3-16.6,3.5c-3.3,1.4-6.6,2.7-10.2,3.4
						c-1.1,0.2-2.2,0.5-3.3,0.4c-1.8-0.1-3.2-1.2-4.1-2.8c-1.1-1.9-1.6-3.9-2-6c-0.4-2.4-0.6-4.9-0.7-7.4c-0.2-5.5-0.7-10.9-2-16.2
						c-0.2-0.8-0.4-1.7-0.7-2.4c-1.1-2.1-0.1-3.8,0.8-5.7c1.3,1.1,1.8,2.5,2.2,3.8c1.1,3.2,1.3,6.6,1.7,9.9
						c0.6,5.6,0.8,11.2,1.7,16.8c0.2,1.4,0.6,2.7,1.3,4c0.7,1.2,1.5,1.6,3,1.5c5.2-0.3,10-2,14.7-4.2c0.3-0.2,0.7-0.4,1-0.6
						C374.6,69.5,374.6,69.4,374.6,69.2z"/>
					<path id="XMLID_463_" class="st7" d="M92.5,48.1c-0.5,0.8-1.1,0.7-1.8,0.9c1.1,1.6,2.4,2.9,3.7,4c2.5,2.2,5.1,4.4,7.6,6.5
						c1.8,1.5,3.5,3.1,5.1,4.9c2.6,3,4.7,6.2,4.7,10.5c0.8-0.6,0.7-1.3,0.6-2c-0.8-5-1.7-10.1-2.5-15.1c-0.7-4.4-1.3-8.9-2.2-13.3
						c-0.4-1.9-0.2-3.5,0.4-5.2c0.1-0.4,0.2-0.8,0.7-0.8c0.4,0,0.5,0.4,0.7,0.6c1.5,2.4,2.7,4.9,3.7,7.5c0.2,0.5,0.5,1,0.1,1.4
						c-0.5,0.6-1-0.1-1.6-0.2c-0.1,1.3,0.3,2.4,0.5,3.6c0.9,5.1,2,10.3,2.4,15.5c0.2,3.1,0.3,6.2-0.5,9.2c-0.9,3.7-2.9,6.7-5.9,8.8
						c-2.3,1.6-4.8,2.8-7.4,3.8c-0.3,0.1-0.5,0.2-0.8,0.2c-0.3,0-0.7-0.1-0.8-0.4c-0.1-0.3,0.1-0.5,0.3-0.7c1.6-1.3,3.2-2.6,4.7-4
						c2.1-1.9,4.2-3.9,5.9-6.1c0.4-0.6,0.6-1,0.2-1.7c-0.8-1.4-1.2-3.1-2.1-4.5c-1.4-2.1-3-4.1-4.9-5.7c-3.2-2.8-6.4-5.5-9.7-8.2
						c-2.7-2.3-5.1-5-6.8-8.2c-0.1-0.2-0.2-0.6-0.4-0.7c-1.5-1.1-1-2.6-0.8-4c0.1-0.5,0.4-1,1-0.6C88.7,45.2,90.8,46.3,92.5,48.1z"
						/>
					<path id="XMLID_460_" class="st7" d="M249.7,110.7c2.4,0,4.6,0,6.9,0c0.1,0.2,0,0.4-0.1,0.5c-1.4,0.4-1.5,0.4-1.5,1.8
						c-0.1,4.4-0.1,8.8,0,13.2c0,1.4,0.4,1.6,1.7,1.7c2.1,0.1,2.5-0.2,3.3-2.2c1.9-4.6,3.7-9.3,5.5-13.9c0.2-0.5,0.2-1.4,0.9-1.4
						c0.7,0,0.7,0.9,0.9,1.5c1.7,4.3,3.4,8.6,5.2,12.9c0.1,0.2,0.2,0.4,0.3,0.6c0.6,1.7,1.6,2.8,3.6,2.6c0.1-1.4,0-2.8,0.2-4.2
						c0.7,0.2,0.5,0.8,0.6,1.2c0.4,1.8,1.9,2.8,3.7,2.6c2.2-0.3,3.3-2.4,2.2-4.4c-0.4-0.8-1-1.3-1.7-1.9c-0.8-0.6-1.6-1.2-2.3-1.9
						c-0.9-0.8-1.6-1.7-2-2.8c-0.8-2.5,0.2-4.8,2.6-5.7c1.7-0.7,3.5-0.5,5.2-0.1c0.5,0.1,0.6,0.4,0.6,0.9c0,1,0,1.9,0,2.8
						c-0.7,0.1-0.6-0.3-0.7-0.6c-0.6-1.9-2.4-2.8-4.3-2c-1.3,0.5-1.8,2.1-1,3.4c0.5,0.8,1.2,1.4,2,2c1,0.8,2,1.6,2.9,2.5
						c1.1,1.2,1.6,2.6,1.6,4.1c-0.1,2.5-1.9,4.5-4.3,4.7c-1.7,0.2-3.4,0.3-5-0.6c-0.2-0.1-0.4-0.3-0.6-0.1c-0.9,0.9-2,0.4-3,0.5
						c-1,0.1-2,0-2.9,0c-0.3-0.5,0.3-0.7,0.1-1.1c-0.6-1.5-1.1-2.9-1.6-4.4c-0.2-0.4-0.5-0.5-0.9-0.5c-1.3,0-2.5,0-3.8,0
						c-0.6,0-0.9,0.3-1.1,0.8c-0.3,1-0.7,1.9-1,2.8c-0.5,1.5-0.4,1.7,1.1,2.3c-4.2,0-8.5,0-12.7,0c1.5-0.5,1.6-0.7,1.7-2.4
						c0-0.6,0.1-1.1,0.1-1.7c0-1.5,0-3,0-4.7c-1.8,0-3.6,0-5.3,0c-1.2,0-2.3-0.1-3.5,0.1c-0.4,1.2-0.1,2.4-0.2,3.7c0,1,0,1.9,0,2.9
						c0.1,1.5,0.3,1.7,1.8,1.8c0.2,0,0.3,0.1,0.5,0.1c-0.8,0.3-5.7,0.4-7.3,0.1c0.6-0.3,1.4,0,1.7-0.7c0.2-0.5,0.3-1.1,0.3-1.6
						c0-4.3,0-8.6,0-12.8c0-1.4-0.2-1.5-1.5-1.7c-0.2,0-0.4,0-0.6-0.2c0.8-0.4,5-0.5,6.8-0.1c0,0.1-0.1,0.3-0.1,0.3
						c-1.6,0.4-1.6,0.4-1.6,2c0,1.4,0,2.8,0,4.2c0,0.6,0.2,0.8,0.8,0.8c2.7,0,5.3,0,8.1,0c0.2-1.9,0.1-3.8,0-5.7
						c0-0.7-0.4-1.1-1.2-1.1C250.4,111.2,250,111.3,249.7,110.7z M265.8,115c-0.7,2.2-1.6,4-2,5.9c1.5,0,2.8,0,4.3,0
						C267.3,118.9,266.7,117,265.8,115z"/>
					<path id="XMLID_459_" class="st7" d="M76,38.2c0.9,0.5,1.2,1.3,1.5,2c1,2.1,2,4.1,2.9,6.2c0.1,0.2,0.1,0.3,0.2,0.5
						c0.2,0.4,0.2,0.8-0.1,1.1c-0.3,0.4-0.7,0.2-1,0c-0.2-0.2-0.4-0.2-0.7-0.1c0.1,1.8,0.6,3.6,0.9,5.4c0.8,4.5,1.6,9.1,2.1,13.6
						c0.5,5-0.8,9.2-4.2,12.8c-3.4,3.6-7.5,6.3-12.3,7.5c-1.9,0.5-3.9,0.8-5.9,0.4c-3.6-0.6-6.4-3.9-6.6-7.8
						c-0.2-3.3,0.4-6.5,1.4-9.6c0.2-0.6,0.5-1.2,1-1.7c0.4-0.5,0.9-0.4,1.1,0.2c0.2,0.6,0.1,1.2,0,1.8c-0.3,1.6-0.8,3.2-1.1,4.8
						c-0.3,1.4-0.3,2.8,0.1,4.2c0.8,2.5,2.6,3.9,5.1,4.1c2.6,0.2,4.9-0.5,7.2-1.6c4.2-2,7.8-4.8,11-8.3c0.6-0.7,0.8-1.4,0.7-2.3
						c-1.3-8.7-2.7-17.4-4-26.1c-0.1-0.6-0.1-1.1-0.3-1.7C74.1,41.4,75.2,39.9,76,38.2z"/>
					<path id="XMLID_456_" class="st7" d="M320.9,110.2c4.3,4.5,8.5,8.9,12.7,13.3c0.4-0.4,0.2-0.8,0.2-1.2
						c-0.1-2.8-0.1-5.5-0.2-8.3c0-0.4,0-0.8-0.1-1.2c-0.1-1.3-0.3-1.5-1.6-1.7c-0.2,0-0.4,0-0.6-0.5c1-0.2,1.9,0,2.8-0.1
						c1,0,2,0,2.9,0c0,0.1,0,0.3,0,0.3c-1.6,0.6-1.6,0.6-1.7,2.3c-0.1,4.4-0.1,8.9-0.2,13.3c0,0.3,0,0.7,0,1c0,0.3,0,0.6-0.3,0.7
						c-0.3,0.1-0.5,0-0.7-0.2c-0.5-0.5-1-0.9-1.4-1.4c-3.5-3.6-7.2-7.2-10.5-11c-0.4,0.1-0.4,0.4-0.4,0.7c0.1,2.8,0.1,5.6,0.2,8.4
						c0,0.2,0,0.3,0,0.5c0.1,1.9,0.3,2.1,2.2,2.5c-0.9,0.4-8.8,0.4-11.9,0.1c0.5-0.4,0.5-0.8,0.3-1.3c-0.5-1.2-0.9-2.4-1.4-3.6
						c-0.2-0.7-0.6-1-1.3-1c-1.2,0-2.3,0-3.5,0c-0.7,0-1,0.3-1.2,0.9c-0.3,1-0.7,1.9-1.1,2.8c-0.5,1.5-0.3,1.7,1.1,2.2
						c-1.9,0-3.8,0-5.7-0.1c0.7-0.3,1.5-0.3,2-1c0.5-0.7,0.8-1.5,1.1-2.3c1.7-4.3,3.4-8.5,5-12.8c0.1-0.4,0.3-0.7,0.5-1.1
						c0.1-0.3,0.2-0.7,0.6-0.7c0.4,0,0.5,0.4,0.6,0.7c0.6,1.6,1.3,3.2,1.9,4.8c1.2,3,2.4,6,3.6,9c0.2,0.4,0.3,0.8,0.5,1.2
						c0.8,1.6,1.8,2.1,3.5,1.8c0.6-0.1,0.9-0.4,1-1c0.1-1,0.2-1.9,0.2-2.9c0.1-4.1,0.1-8.2,0.2-12.3
						C320.5,111.2,320.3,110.8,320.9,110.2z M308.3,114.9c-0.8,2.2-1.5,4.1-2.2,6c1.5,0,2.9,0,4.4,0
						C309.8,118.9,309.1,117,308.3,114.9z"/>
					<path id="XMLID_453_" class="st7" d="M99.9,77c0,2-0.6,3.8-1.6,5.4c-2.8,4.7-6.7,8.1-11.2,11c-3.3,2.1-7.1,2.9-10.8,3.9
						c-1.3,0.3-2.6,0.6-3.9,0.8c-0.4,0.1-0.7-0.1-0.8-0.4c-0.1-0.3,0.2-0.5,0.4-0.7c0.8-0.6,1.7-1.1,2.6-1.5
						C81.4,92.2,88,88.2,93.8,83c1.2-1,2.3-2.1,3.3-3.3c0.9-1,0.6-2.2-0.8-2.5c-1.3-0.3-2.7-0.3-4.1-0.3c-1.7,0-3.1-1-3.5-2.5
						c-0.2-0.8-0.2-1.7,0-2.5c0.3-1.3,0.9-2.5,1.7-3.6c1.4-1.7,3.4-2,5.2-0.8c0.5,0.3,1,0.8,1.3,1.2C98.7,70.8,99.9,74.3,99.9,77z
						 M95.8,73.4c-0.2-0.9-0.5-1.6-1-2.1c-0.8-0.9-1.8-1.3-2.9-1.1c-0.8,0.2-1.3,0.6-1.3,1.5c0,0.7,0.5,1.3,1.4,1.4
						C93.2,73.3,94.5,73.3,95.8,73.4z"/>
					<path id="XMLID_450_" class="st7" d="M154.3,111c0.3-0.5,0.7-0.3,1-0.3c1.9,0,3.8,0,5.6,0c0.8,0,1.6,0.1,2.5,0.2
						c3.2,0.5,4.3,3.9,2.8,6.6c-0.6,1-1.3,1.8-2.3,2.6c2.5,2.7,4,6.2,7.8,7.8c0.1-1.6,0.2-2.9,0.3-4.4c0.7,0.4,0.5,0.9,0.7,1.4
						c0.5,1.7,1.9,2.7,3.6,2.5c2.2-0.2,3.3-2.3,2.3-4.3c-0.4-0.8-1.1-1.4-1.8-2c-1-0.8-2-1.5-2.8-2.4c-0.9-1-1.6-2.1-1.7-3.6
						c-0.1-2.2,1-3.9,3.1-4.6c1.6-0.5,3.3-0.4,4.9,0c0.4,0.1,0.6,0.2,0.7,0.6c0,1,0,2.1,0,3.1c-0.8,0-0.6-0.4-0.7-0.7
						c-0.8-2.3-2.7-2.4-4.3-1.9c-1.4,0.5-1.8,2.2-0.9,3.5c0.6,0.8,1.4,1.4,2.2,2.1c1,0.7,1.9,1.5,2.7,2.4c1.4,1.7,1.9,3.7,1,5.8
						c-0.8,2-2.5,2.9-4.6,3c-0.6,0-1.2,0.1-1.8,0c-1.7-0.3-3.4-0.3-5.1-0.2c-1.7,0-3-0.6-4-2c-1.1-1.4-2.1-2.9-3.1-4.3
						c-0.3-0.4-0.5-0.8-1.1-0.9c-1.6-0.2-1.9-0.1-1.9,1.6c0,0.9,0,1.8,0,2.7c0,2.2,0.1,2.3,2.2,2.5c-0.7,0.4-5.6,0.4-6.8,0.1
						c1.6-0.4,1.6-0.4,1.6-2.1c0.2-4.1,0.2-8.2,0.1-12.3C156.3,111.5,156.3,111.5,154.3,111z M159.3,115.8c0,1,0,2,0,3
						c0,0.4,0,0.7,0.5,0.9c2.3,0.7,4-0.4,4.2-2.8c0.1-0.6,0.1-1.2,0-1.8c-0.2-2-1.6-3.2-3.6-3.2c-0.8,0-1.2,0.1-1.1,1.1
						C159.4,113.9,159.3,114.8,159.3,115.8z"/>
					<path id="XMLID_449_" class="st7" d="M130.7,123.6c0.3,0,0.3-0.3,0.4-0.5c1.3-3.4,2.7-6.8,4-10.2c0.6-1.5,0.5-1.5-1.3-2.1
						c1.6-0.5,2.9-0.1,4.2-0.2c1.4-0.1,2.8,0,4.2,0c1.4,0,2.8,0,4.1,0c1.4,0,2.8,0,4.3,0c0.2,1-0.2,2.1-0.2,3.2
						c-0.5,0-0.5-0.3-0.5-0.5c-0.1-0.8-0.7-1.2-1.4-1.3c-1.1-0.2-2.5-0.5-3.4,0.1c-0.7,0.4-0.2,1.8-0.2,2.7c0,0.9,0,1.8,0,2.7
						c0,0.4,0.1,0.7,0.6,0.8c1.2,0.1,3.5-0.2,4.6-0.7c0.2,1.3-0.1,2.5-0.3,3.9c-0.8-2-0.8-2-2.7-2.1c-0.7,0-1.4-0.2-2.3,0
						c0,2,0,4.1,0,6.2c0,0.6,0.4,1,1,1.2c1.2,0.3,2.4,0.3,3.6-0.1c0.6-0.2,0.9-0.6,1.1-1.2c0.1-0.3,0-0.7,0.6-0.7
						c0.3,1-0.1,2-0.3,2.9c-0.1,0.5-0.6,0.6-1,0.6c-0.9,0-1.8,0.1-2.7,0c-2.2-0.2-4.4-0.3-6.6-0.1c-0.2,0-0.3,0-0.4-0.3
						c0.4-0.3,1.1,0.1,1.4-0.5c0.3-0.5,0.4-1.1,0.4-1.6c0.1-4.2,0.1-8.4,0-12.6c0-0.8,0.1-1.6-0.9-1.9c-1.5-0.4-2.9-0.1-3.5,0.8
						c-0.3,0.5-0.5,1-0.7,1.5c-1.9,4.4-3.8,8.8-5.7,13.2c-0.1,0.2-0.1,0.3-0.2,0.5c-0.3,0.5-0.3,1.2-1,1.2c-0.6,0-0.6-0.7-0.8-1.2
						c-1.8-4.5-3.6-8.9-5.4-13.4c-0.6-1.5-1.1-3-3.2-3c1.2-0.6,2.4-0.3,3.5-0.3c1.2,0,2.3,0,3.5,0c0,0.2,0,0.4-0.1,0.5
						c-1.2,0.5-1.2,0.5-0.8,1.6c1.3,3.6,2.7,7.2,4.1,10.8C130.5,123.6,130.6,123.6,130.7,123.6z"/>
					<path id="XMLID_448_" class="st7" d="M259.6,38.4c0.6,0.4,0.8,0.9,1.1,1.4c1.2,2.2,2.3,4.5,3.3,6.8c0.1,0.3,0.2,0.5,0.3,0.8
						c0,0.5-0.1,0.8-0.7,0.6c-0.4-0.1-0.7-0.6-1.3-0.5c0.1,1.9,0.6,3.6,0.9,5.5c1.1,6.5,2.4,12.9,2.7,19.5c0.1,2.4,0,4.7-0.2,7.1
						c-0.1,0.7-0.2,1.7-0.8,1.7c-0.8,0-0.7-1.1-0.7-1.6c-1-5.8-1.9-11.6-2.8-17.4c-0.9-6-1.8-12-2.7-18c-0.1-0.9-0.8-1.7-0.4-2.7
						C258.6,40.4,258.7,39.3,259.6,38.4z"/>
					<path id="XMLID_447_" class="st7" d="M120.9,38.3c1.6,1.9,2.4,4.2,3.5,6.3c0.5,0.9,0.9,1.8,1.1,2.8c0,0.2,0,0.4-0.2,0.6
						c-0.7,0.2-1.2-0.5-1.9-0.6c0.5,3,1,5.8,1.6,8.7c1.3,6.8,2.4,13.6,2.1,20.6c0,1.3-0.2,2.6-0.4,3.8c-0.1,0.3-0.2,0.7-0.6,0.7
						c-0.5,0-0.5-0.5-0.6-0.8c-0.6-3.4-1.1-6.7-1.7-10.1c-1.1-6.9-2.1-13.9-3.2-20.8c-0.4-2.3-0.7-4.5-1.2-6.8
						C119.1,41.1,119.7,39.6,120.9,38.3z"/>
					<path id="XMLID_446_" class="st7" d="M94.5,115.9c0.1,3.2,0.1,6.5,0.3,9.7c0.1,1.9,0.3,2,2.1,2.4c-2,0.3-4,0-5.9,0.2
						c-0.3-0.5,0-0.4,0.1-0.5c1.4-0.2,1.6-0.3,1.6-1.8c0.1-2.5,0.1-5.1,0.1-7.6c0-2.1,0-4.2,0-6.2c0-0.6-0.2-1.4,0.5-2
						c4.2,4.4,8.4,8.8,12.8,13.4c0.3-0.8,0.2-1.5,0.2-2.1c0-2.6-0.1-5.3-0.2-7.9c0-0.3,0-0.6,0-0.8c-0.1-0.9-0.4-1.5-1.4-1.5
						c-0.2,0-0.6,0.1-0.7-0.4c2,0,3.9,0,5.8,0c0,0.1,0,0.3-0.1,0.3c-1.5,0.5-1.5,0.5-1.5,2.1c-0.1,4.6-0.2,9.1-0.3,13.7
						c0,0.6,0.4,1.4-0.3,1.6c-0.6,0.2-0.9-0.5-1.3-0.9c-3.7-3.7-7.4-7.3-10.8-11.2c-0.2-0.2-0.3-0.4-0.5-0.6
						C94.7,115.8,94.6,115.8,94.5,115.9z"/>
					<path id="XMLID_445_" class="st7" d="M70.5,110.6c2.3,0,4.4,0,6.6,0c0.2,0,0.3,0,0.4,0.2c0,0.3-0.2,0.4-0.4,0.4
						c-1,0-1.2,0.5-1.2,1.4c-0.1,3.3-0.1,6.6,0,9.9c0,0.6,0.2,1.2,0.4,1.8c0.6,2,2.2,3,4.3,2.9c2.2-0.1,3.5-1.2,4-3.3
						c0.2-0.8,0.3-1.5,0.3-2.3c0-2.8,0-5.5,0-8.3c0-1.8,0-1.8-1.9-2.3c-0.1,0-0.1-0.2-0.2-0.4c2,0,4,0,6.2,0c-1.9,0.9-1.9,0.9-2,3
						c0,2.2-0.1,4.5-0.1,6.7c0,1.1-0.1,2.2-0.4,3.3c-0.7,2.7-2.7,4.4-5.4,4.7c-1.2,0.1-2.4,0.1-3.6-0.1c-2.6-0.6-4.2-2.6-4.5-5.5
						c-0.2-2.3-0.1-4.6-0.1-6.9c0-1,0-1.9,0-2.9c-0.1-1.5-0.2-1.6-1.7-1.9C70.9,111.1,70.8,111.1,70.5,110.6z"/>
					<path id="XMLID_444_" class="st7" d="M211.3,110.7c3.5,0,7.1,0,10.8,0c0,1-0.1,2.1-0.5,3.3c-0.3-2-1.6-2.1-3.1-2.1
						c-2.2,0-2.2,0-2.2,2.2c0,1.1,0,2.2,0,3.4c0,0.6,0.2,0.8,0.8,0.8c1.5-0.1,3.1,0.1,4.6-0.7c-0.1,1.4-0.2,2.6-0.4,3.8
						c-0.3-1.7-1.5-1.9-2.9-1.9c-0.7,0-1.3-0.2-2.1,0.1c0,2-0.1,4.1,0,6.2c0.1,0.7,0.4,1.1,1.1,1.2c0.8,0.2,1.5,0.2,2.3,0.2
						c1.2-0.1,2.2-0.5,2.3-1.9c0-0.2,0.1-0.3,0.5-0.3c0.1,1-0.2,1.9-0.3,2.8c-0.1,0.5-0.5,0.7-1,0.7c-0.9,0-1.8,0.1-2.7,0
						c-2.2-0.2-4.4-0.3-6.6-0.1c-0.2,0-0.4,0-0.6-0.3c1.6-0.4,1.7-0.5,1.7-2.2c0.1-2.8,0-5.5,0.1-8.3c0-1.5,0-2.9,0-4.4
						c0-1.6-0.1-1.7-1.6-1.9C211.5,111.1,211.3,111.2,211.3,110.7z"/>
					<path id="XMLID_443_" class="st7" d="M205.4,128c-1,0.3-6.2,0.3-7.1,0c1.5-0.4,1.6-0.4,1.7-2c0.1-1,0.1-2,0.1-3
						c0-3.6,0-7.2,0-10.9c-1.6-0.2-3.1,0.1-4.7,0.2c-0.9,0.1-1.1,1-1.6,1.7c-0.3-1.3,0.1-2.3,0.3-3.3c0.1-0.3,0.3-0.3,0.5-0.2
						c4.7,0.5,9.5,0.2,14.3,0.2c0.2,1.1,0,2.2,0,3.2c-0.5,0.1-0.5-0.2-0.6-0.5c-0.2-0.8-0.8-1-1.5-1.1c-1.3-0.2-2.5-0.3-3.8-0.2
						c-0.3,0.3-0.2,0.7-0.2,1.1c0,4,0,8,0,12c0,0.3,0,0.7,0,1c0.1,1.3,0.3,1.5,1.6,1.7C205,127.8,205.3,127.7,205.4,128z"/>
					<path id="XMLID_442_" class="st7" d="M298.8,114.4c-0.4-0.1-0.5-0.4-0.5-0.6c-0.7-1.9-1.5-2.5-3.5-2.3c-1.9,0.2-2.9,2-1.8,3.7
						c0.5,0.8,1.2,1.3,1.9,1.9c1.1,0.9,2.2,1.7,3.1,2.8c0.9,1.1,1.5,2.4,1.4,3.9c-0.1,2-1,3.6-2.9,4.4c-1.9,0.8-3.9,0.7-5.8,0.2
						c-0.7-0.2-1-0.6-1-1.3c0.1-1.1-0.1-2.2,0.3-3.4c0.6,0.5,0.4,1.1,0.5,1.5c0.5,1.6,1.7,2.5,3.4,2.5c2.5-0.1,3.7-2.4,2.5-4.5
						c-0.5-0.8-1.2-1.4-2-2c-0.9-0.7-1.7-1.4-2.5-2.2c-0.6-0.7-1.2-1.5-1.5-2.4c-0.8-2.4,0.3-4.7,2.6-5.6c1.7-0.7,3.5-0.5,5.2-0.1
						c0.4,0.1,0.6,0.3,0.6,0.7C298.9,112.3,298.9,113.4,298.8,114.4z"/>
					<path id="XMLID_441_" class="st7" d="M185,110.7c2.2,0,4.3,0,6.4,0c0.1,0.2,0.1,0.3-0.1,0.4c-1.5,0.4-1.6,0.5-1.6,2
						c0,4.2,0,8.3,0,12.5c0,0.3,0,0.6,0.1,0.8c0.2,1.1,0.3,1.3,1.4,1.4c0.3,0,0.5,0,0.9,0.1c-0.8,0.4-5,0.5-7.1,0.3
						c0-0.4,0.4-0.3,0.6-0.3c0.7,0,1-0.4,1-1c0.1-0.8,0.2-1.7,0.2-2.5c0-3.5,0-7,0-10.4c0-0.3,0-0.7,0-1c0-0.9-0.3-1.7-1.4-1.6
						c-0.1,0-0.2-0.1-0.3-0.1C185,111,185,110.9,185,110.7z"/>
					<path id="XMLID_440_" class="st7" d="M120.3,128.1c-2.3,0.1-4.7,0-7,0c0.4-0.4,1-0.1,1.3-0.6c0.3-0.5,0.4-1.1,0.4-1.6
						c0-4.3,0.1-8.6,0-13c0-1.4-0.1-1.4-1.8-1.9c0.8-0.4,4.5-0.5,6.4-0.2c0,0.4-0.4,0.4-0.6,0.4c-0.7,0-1,0.4-1,1.1
						c0,0.8-0.1,1.6-0.1,2.3c0,3.5,0,7,0,10.4c0,0.1,0,0.1,0,0.2C118,127.6,118,127.6,120.3,128.1z"/>
					<path id="XMLID_439_" class="st7" d="M353.3,113.7c-1.3,0.1-2.2,1-3.3,1.1c0.4-0.9,4-3.5,6.1-4.4c0.4,0.7,0.2,1.4,0.2,2.1
						c-0.2,4.3-0.1,8.5,0,12.8c0.1,2.2,0.1,2.2,2.3,2.6c0.1,0,0.1,0.1,0.2,0.2c-0.9,0.3-7.3,0.3-8.3,0c0.1-0.1,0.1-0.2,0.2-0.2
						c2.6-0.2,2.6-0.3,2.7-2.9C353.3,121.2,353.3,117.5,353.3,113.7z"/>
					<path id="XMLID_438_" class="st7" d="M289.5,36.6c1,0.9,1.9,1.7,2.8,2.5c0.6-0.8,1.1-1.6,1.8-2.5c1.4,1.2,2.7,2.4,4.2,3.6
						c-0.8,1.2-1.6,2.3-2.3,3.4c-0.3,0.5-0.6,0.6-1,0.2c-0.7-0.6-1.4-1.2-2.2-1.9c-0.6,0.8-1.1,1.5-1.7,2.3
						c-1.5-1.1-2.8-2.4-4.2-3.7C287.7,39.3,288.6,38,289.5,36.6z"/>
					<path id="XMLID_435_" class="st7" d="M86.4,35.9c0.2-0.1,0.3-0.1,0.5-0.2c0.5-0.2,1-0.7,1.5,0c0.4,0.6-0.1,1-0.4,1.5
						c-0.2,0.4-0.6,0.8-1.1,1c-1.7,1-3.5,1.9-5.2,2.9c-0.4,0.2-0.8,0.5-1.2,0c-0.4-0.4-0.3-1,0-1.4c0.3-0.4,0.6-0.8,1-1.1
						c-1.1-1.2-1-2-0.1-3.5c0.5-0.8,1.1-1.4,1.8-2c0.8-0.6,1.6-0.8,2.5-0.3c0.9,0.6,0.8,1.5,0.5,2.4c0,0.1,0,0.2-0.1,0.3
						c-0.1,0.1-0.3,0.3-0.1,0.5C86.1,36.1,86.2,35.9,86.4,35.9z M85.1,36.5c-0.3-0.6-0.9-0.7-1.1-1.1c-0.2-0.3-0.7-0.2-1,0.2
						c-0.2,0.4,0.1,0.6,0.4,0.8C83.9,36.8,84.4,36.7,85.1,36.5z"/>
					<path id="XMLID_432_" class="st7" d="M372.5,118.9c-0.9,0.2-1.8,0.1-2.7,0c0.9-1.4,0.4-2.9,0.4-4.4c0-1.4,0.4-3-0.5-4.4
						c1,0,2.1,0,3.2,0c1,0,1.9,0.3,2.3,1.3c0.5,1,0.2,1.9-0.5,2.6c-0.7,0.7-0.6,1.2,0,1.8c1,1,1.6,2.5,3.2,2.9
						c-1.6,0.5-2.7,0.1-3.6-1.2c-0.4-0.6-0.8-1.1-1.2-1.6c-0.3-0.4-0.7-0.6-1.1-0.5c-0.5,0.1-0.4,0.6-0.4,1
						C371.8,117.3,371.4,118.4,372.5,118.9z M371.7,112.7c0,0.3,0,0.7,0,1c0,0.4-0.1,0.9,0.5,1.1c0.5,0.2,1,0,1.4-0.3
						c0.9-0.8,0.6-2.8-0.4-3.4c-0.8-0.5-1.4-0.2-1.5,0.8C371.7,112.2,371.7,112.4,371.7,112.7z"/>
					<path id="XMLID_431_" class="st7" d="M379.6,78.3c1.4,1.2,2.6,2.3,3.9,3.4c0.6,0.5,0.5,0.8,0.1,1.4c-0.7,0.9-1.2,2-2,2.8
						c-1.1-0.4-1.8-1.3-2.7-2c-1.9-1.5-1.9-1.5-0.6-3.6C378.7,79.7,379.1,79.1,379.6,78.3z"/>
					<path id="XMLID_430_" class="st7" d="M158.6,72.8c-1.4-1.2-2.7-2.3-4.1-3.4c-0.4-0.3-0.4-0.6-0.2-1c0.7-1.1,1.4-2.2,2.2-3.4
						c1.4,1.2,2.8,2.4,4.1,3.5c0.3,0.3,0.4,0.5,0.2,0.9C160.2,70.5,159.4,71.6,158.6,72.8z"/>
					<path id="XMLID_429_" class="st7" d="M362.1,110.3c1.9,0,3.6,0,5.3,0c0,0.4,0,0.8-0.1,1.5c-0.7-1.1-1.6-0.9-2.6-0.9
						c-0.3,1-0.1,1.9-0.1,3c0.9,0.1,1.7,0,2.5,0c0.3,0.5,0.1,0.9,0.1,1.6c-0.8-1-1.6-1-2.6-0.7c0,0.7,0,1.3,0,2
						c0,0.5-0.3,1.3,0.4,1.5c0.7,0.2,1.6,0.4,2.3-0.3c0.1-0.1,0.1-0.1,0.2-0.2c0.1,1.3,0.1,1.3-1,1.3c-1.3,0-2.7,0-4,0
						c0.5-0.9,0.8-5.1,0.5-7.6C363,110.9,362.8,110.6,362.1,110.3z"/>
					<path id="XMLID_428_" class="st7" d="M221.3,106.1c-2.5,0-4.6,1.1-6.8,2c-0.1-0.5,0.1-0.6,0.3-0.8c1.4-1.3,2.9-2.4,4.4-3.5
						c0.6-0.5,1.1-0.4,1.4,0.3C220.9,104.8,221.4,105.3,221.3,106.1z"/>
				</g>
				<g id="XMLID_426_">
					<path class="st8" d="M196.5,339.6c-0.1,0.4-0.2,0.6-0.6,0.7c0.3-0.5-0.8-0.8-0.2-1.4C196,339.1,196.2,339.4,196.5,339.6z"/>
				</g>
				<g id="XMLID_425_">
					<path class="st8" d="M195.7,340.5c0.1,0.2,0.2,0.3,0,0.5C195.6,340.8,195.5,340.7,195.7,340.5z"/>
				</g>
				<g id="XMLID_424_">
					<polygon class="st8" points="149.7,246.3 149.6,246.3 149.7,246.3 					"/>
				</g>
				<g id="XMLID_423_">
					<path class="st8" d="M184.2,407.3c-0.1,0-0.3-0.1-0.2-0.3c0.1-0.1,0.3-0.1,0.4,0C184.3,407.2,184.3,407.2,184.2,407.3z"/>
				</g>
			</g>
		</g>
	</g>
</g>
</svg>
