<?xml version="1.0" encoding="utf-8"?>
<!-- Generator: Adobe Illustrator 19.0.0, SVG Export Plug-In . SVG Version: 6.00 Build 0)  -->
<svg version="1.1" id="Layer_1" xmlns="http://www.w3.org/2000/svg" xmlns:xlink="http://www.w3.org/1999/xlink" x="0px" y="0px"
	 viewBox="0 0 500 500" style="enable-background:new 0 0 500 500;" xml:space="preserve">
<style type="text/css">
	.st0{display:none;}
	.st1{display:inline;fill:#CE1F44;}
	.st2{display:inline;fill:#FFFFFF;}
	.st3{fill:#1078BD;}
	.st4{fill:#F8AE1F;}
</style>
<g id="Background" class="st0">
	<rect x="537" class="st1" width="500" height="25"/>
	<rect x="537" y="25" class="st2" width="500" height="25"/>
	<rect x="537" y="50" class="st1" width="500" height="25"/>
	<rect x="537" y="75" class="st2" width="500" height="25"/>
	<rect x="537" y="100" class="st1" width="500" height="25"/>
	<rect x="537" y="125" class="st2" width="500" height="25"/>
	<rect x="537" y="150" class="st1" width="500" height="25"/>
	<rect x="537" y="175" class="st2" width="500" height="25"/>
	<rect x="537" y="200" class="st1" width="500" height="25"/>
	<rect x="537" y="225" class="st2" width="500" height="25"/>
	<rect x="537" y="250" class="st1" width="500" height="25"/>
	<rect x="537" y="275" class="st2" width="500" height="25"/>
	<rect x="537" y="300" class="st1" width="500" height="25"/>
	<rect x="537" y="325" class="st2" width="500" height="25"/>
	<rect x="537" y="350" class="st1" width="500" height="25"/>
	<rect x="537" y="375" class="st2" width="500" height="25"/>
	<rect x="537" y="400" class="st1" width="500" height="25"/>
	<rect x="537" y="425" class="st2" width="500" height="25"/>
	<rect x="537" y="450" class="st1" width="500" height="25"/>
	<rect x="537" y="475" class="st2" width="500" height="25"/>
</g>
<g id="Logo_FSTS_1_">
	<path id="XMLID_1165_" class="st3" d="M251.8,180.4c0,19.3-0.2,38.6,0.1,57.8c0.1,5.9-1.4,10-6.4,13.1c-10.6,6.6-21,13.3-31.5,20
		c-1.7,1.1-3.4,1.7-5.5,1.3c-10.2-2.3-19.7-14.5-20.2-25.2c-0.3-5.2,0.3-10,5.2-12.8c5.5-3.1,4.4-6.2,1.8-10.9
		c-24-42.6-0.8-95,47.2-109.5c8.4-2.5,9.5,0.2,9.4,7.5c-0.3,19.6-0.1,39.2-0.1,58.8C251.8,180.4,251.8,180.4,251.8,180.4z"/>
	<path id="XMLID_919_" class="st3" d="M250,103.7c-54.7,8.3-86.4,61.1-68.4,114.7c1.9,5.8,1.9,10.3-0.7,15.7
		c-3.9,8.3-1.2,17.4-1.7,26.2c-0.2,3.6,0.1,7.2,0.1,10.8c0,13.2-7.7,19.9-20,15.1c-16.4-6.3-31.9-14.7-47.5-24.1
		c12.9-1,25.7-2.5,38.6-2.8c10-0.2,13.6-3.6,12.9-14.1c-1.1-16.9-0.4-34-0.1-51c0.1-5.8-0.1-10.5-8.1-10c-6,0.4-7.2-4.9-4.5-7.8
		c6.9-7.4,6.5-16.9,8.8-25.4c10-36.5,52.5-69.9,90.7-70.4C250.2,88.3,250.1,96,250,103.7z"/>
	<path id="XMLID_918_" class="st4" d="M70.4,317.5c117.2-37.8,234.5-42.2,351.6-0.3c-28.5-6.6-57.6-10.4-86.6-14.2
		c-29.4-3.8-59-4.8-88.6-4.1c-29.9,0.6-59.8,1.2-89.5,5.6C128.3,308.7,99.2,312.9,70.4,317.5z"/>
	<path id="XMLID_917_" class="st4" d="M250,103.7c0.1-7.7,0.1-15.4,0.2-23.2c33.4-0.7,73.7,27.1,87.5,60.3
		c5.5,13.1,2,20.4-11.7,24.6c-5.7,1.7-5.5-3.4-6.5-6.2c-7.3-19.5-20.3-34-38.2-44.4C271.7,109.1,261.1,105.6,250,103.7z"/>
	<path id="XMLID_916_" class="st4" d="M337.7,245.3c0,11.5-0.1,22.9,0.1,34.4c0.1,4.6-0.8,7.9-6.5,7.2c-4.6-0.6-9.6-0.1-9.5-7
		c0.1-9.8,0.1-19.6,0-29.5c0-7.1-0.3-13.7-4-20.7c-4.1-7.7,1.2-15.2,7.7-20c3.2-2.3,6.3-7.9,10.5-5.7c3.9,2.1,1.5,7.8,1.6,11.8
		C337.9,225.7,337.7,235.5,337.7,245.3z"/>
	<path id="XMLID_915_" class="st3" d="M315.5,179.7c51.3-32.6,102.7-65.3,154-97.9c0.7,1.1,1.4,2.2,2.2,3.3
		c-51.3,32.6-102.5,65.2-153.8,97.9C317,181.9,316.2,180.8,315.5,179.7z"/>
	<path id="XMLID_913_" class="st4" d="M315.5,191c51.3-32.6,102.7-65.3,154-97.9c0.7,1.1,1.4,2.2,2.2,3.3
		c-51.3,32.6-102.5,65.2-153.8,97.9C317,193.2,316.2,192.1,315.5,191z"/>
	<path id="XMLID_912_" class="st4" d="M267.7,273.6c-16.5,4.3-30.6,7.5-47.2,2c9.5-8.1,19.5-13,28.8-18.9c0.5-0.3,2.3,0.6,2.3,0.8
		C250.5,267.6,260.2,268,267.7,273.6z"/>
	<path id="XMLID_911_" class="st3" d="M431.8,134.2c-27.5,17.7-54.6,36.1-83.2,52c-0.5-0.8-0.9-1.5-1.4-2.3
		c27.6-17.6,55.2-35.1,82.9-52.7C430.6,132.2,431.2,133.2,431.8,134.2z"/>
	<path id="XMLID_910_" class="st3" d="M341.5,191.5c-21,13.5-42,27-63,40.5c-0.7-1-1.4-2.1-2-3.1c20.3-14.4,42.1-26.7,63.2-40
		C340.2,189.8,340.9,190.7,341.5,191.5z"/>
	<path id="XMLID_908_" class="st3" d="M205.5,77.3c0.2,3.5,0.4,7.6-6.2,7.5c-5.4-0.1-8.4-1.1-8.1-7.5c0.3-5.9,1.3-12.9,6.8-13.3
		C204,63.6,205.6,70.6,205.5,77.3z"/>
	<path id="XMLID_906_" class="st3" d="M163.9,115.2c0.2,4.4,0.4,8.6-6.7,8.6c-6.4,0-7.6-2.8-7.5-8.2c0.2-5.8,1.2-12.6,7.3-12.7
		C162.5,102.7,164.2,109.3,163.9,115.2z"/>
	<path id="XMLID_904_" class="st4" d="M242.7,54.8c-0.5-6.5,1.7-13.1,7.6-13c6.3,0.2,6.9,7.3,7.2,13.1c0.3,5.8-1.7,8.1-7.8,8.1
		C243,63.1,242.1,59.6,242.7,54.8z"/>
	<path id="XMLID_903_" class="st4" d="M351.1,115.6c0.4,4.4,0,8.3-6.9,8.3c-6.4,0-7.9-3-7.7-8.4c0.2-5.8,0.9-12.7,7.7-12.6
		C350.1,102.9,351.3,109.4,351.1,115.6z"/>
	<path id="XMLID_902_" class="st4" d="M309.7,76.9c0.3,3.8,0.2,7.9-6.8,8c-6.7,0.1-7.4-3.4-7.3-8.7c0.1-5.5,0.8-12.2,6.8-12.3
		C308.4,63.7,309.8,70.1,309.7,76.9z"/>
	<g id="XMLID_242_">
		<path id="XMLID_900_" class="st3" d="M118.4,412.4h8.4v3.1h-5.2v3h5.2v3h-5.2v7.5h-3.2V412.4z"/>
		<path id="XMLID_897_" class="st3" d="M134.9,412.4h3.3l6.5,16.6h-3.4l-1.3-3.4h-6.9l-1.4,3.4h-3.3L134.9,412.4z M136.5,416.8
			l-2.3,5.7h4.5L136.5,416.8z"/>
		<path id="XMLID_895_" class="st3" d="M162.7,415.3l-2.3,2.1c-1.5-1.6-3.3-2.4-5.2-2.4c-1.6,0-3,0.5-4.1,1.6
			c-1.1,1.1-1.7,2.4-1.7,4c0,1.1,0.2,2.1,0.7,3c0.5,0.9,1.2,1.5,2.1,2c0.9,0.5,1.9,0.7,3,0.7c0.9,0,1.8-0.2,2.6-0.5
			c0.8-0.3,1.6-1,2.6-1.9l2.2,2.2c-1.2,1.2-2.4,2-3.5,2.5c-1.1,0.5-2.4,0.7-3.8,0.7c-2.6,0-4.8-0.8-6.5-2.5
			c-1.7-1.6-2.5-3.7-2.5-6.3c0-1.7,0.4-3.1,1.1-4.4c0.8-1.3,1.9-2.3,3.3-3.1c1.4-0.8,3-1.2,4.6-1.2c1.4,0,2.7,0.3,4,0.9
			C160.6,413.4,161.8,414.3,162.7,415.3z"/>
		<path id="XMLID_893_" class="st3" d="M165.4,412.4h3.2v10.7c0,0.9,0.1,1.6,0.2,2c0.2,0.4,0.4,0.7,0.8,0.9s0.8,0.3,1.4,0.3
			c0.6,0,1.1-0.1,1.5-0.4c0.4-0.3,0.7-0.6,0.8-1c0.2-0.4,0.2-1.2,0.2-2.3v-10.4h3.2v9.9c0,1.7-0.1,2.8-0.3,3.5
			c-0.2,0.6-0.6,1.3-1.1,1.9c-0.5,0.6-1.2,1-1.9,1.3c-0.7,0.3-1.5,0.4-2.5,0.4c-1.2,0-2.3-0.3-3.2-0.8c-0.9-0.6-1.6-1.2-1.9-2.1
			c-0.4-0.8-0.6-2.2-0.6-4.2V412.4z"/>
		<path id="XMLID_891_" class="st3" d="M180.6,412.4h3.2V426h4.7v3h-7.9V412.4z"/>
		<path id="XMLID_889_" class="st3" d="M189.3,412.4h9.4v3.1h-3.1V429h-3.3v-13.5h-3V412.4z"/>
		<path id="XMLID_886_" class="st3" d="M200.9,412.4h9.2v3.1h-6v3h6v3h-6v4.4h6v3.1h-9.2V412.4z M206,406.7h3.7l-4.2,4.4h-2.3
			L206,406.7z"/>
		<path id="XMLID_883_" class="st3" d="M219.7,412.4h3.8c2.5,0,4.3,0.3,5.5,0.9c1.2,0.6,2.2,1.6,3,2.9c0.8,1.3,1.2,2.9,1.2,4.7
			c0,1.3-0.2,2.5-0.7,3.5c-0.4,1.1-1,2-1.8,2.7c-0.8,0.7-1.6,1.2-2.5,1.5c-0.9,0.3-2.4,0.4-4.6,0.4h-3.9V412.4z M222.9,415.4v10.5
			h1.5c1.5,0,2.5-0.2,3.2-0.5c0.7-0.3,1.2-0.9,1.6-1.7c0.4-0.8,0.6-1.8,0.6-2.9c0-1.8-0.5-3.1-1.5-4.1c-0.9-0.9-2.4-1.3-4.4-1.3
			H222.9z"/>
		<path id="XMLID_881_" class="st3" d="M236.2,412.4h9.2v3.1h-6v3h6v3h-6v4.4h6v3.1h-9.2V412.4z"/>
		<path id="XMLID_879_" class="st3" d="M257.3,414.7l-2.4,2.1c-0.8-1.1-1.7-1.7-2.6-1.7c-0.4,0-0.8,0.1-1,0.3s-0.4,0.5-0.4,0.8
			c0,0.3,0.1,0.5,0.3,0.8c0.3,0.3,1,1,2.4,2.1c1.2,1,2,1.6,2.2,1.9c0.7,0.6,1.1,1.3,1.4,1.9c0.3,0.6,0.4,1.2,0.4,1.9
			c0,1.4-0.5,2.5-1.4,3.4c-1,0.9-2.2,1.3-3.8,1.3c-1.2,0-2.3-0.3-3.2-0.9c-0.9-0.6-1.7-1.5-2.3-2.7l2.7-1.6c0.8,1.5,1.7,2.2,2.8,2.2
			c0.6,0,1-0.2,1.4-0.5c0.4-0.3,0.6-0.7,0.6-1.1c0-0.4-0.1-0.8-0.4-1.1c-0.3-0.4-0.9-1-1.9-1.7c-1.8-1.5-3-2.6-3.6-3.4
			c-0.5-0.8-0.8-1.6-0.8-2.4c0-1.2,0.4-2.1,1.3-3c0.9-0.8,2-1.2,3.3-1.2c0.8,0,1.6,0.2,2.4,0.6C255.6,412.9,256.4,413.6,257.3,414.7
			z"/>
		<path id="XMLID_877_" class="st3" d="M276.2,414.7l-2.4,2.1c-0.8-1.1-1.7-1.7-2.6-1.7c-0.4,0-0.8,0.1-1,0.3s-0.4,0.5-0.4,0.8
			c0,0.3,0.1,0.5,0.3,0.8c0.3,0.3,1,1,2.4,2.1c1.2,1,2,1.6,2.2,1.9c0.7,0.6,1.1,1.3,1.4,1.9c0.3,0.6,0.4,1.2,0.4,1.9
			c0,1.4-0.5,2.5-1.4,3.4c-1,0.9-2.2,1.3-3.8,1.3c-1.2,0-2.3-0.3-3.2-0.9c-0.9-0.6-1.7-1.5-2.3-2.7l2.7-1.6c0.8,1.5,1.7,2.2,2.8,2.2
			c0.6,0,1-0.2,1.4-0.5c0.4-0.3,0.6-0.7,0.6-1.1c0-0.4-0.1-0.8-0.4-1.1c-0.3-0.4-0.9-1-1.9-1.7c-1.8-1.5-3-2.6-3.6-3.4
			c-0.5-0.8-0.8-1.6-0.8-2.4c0-1.2,0.4-2.1,1.3-3c0.9-0.8,2-1.2,3.3-1.2c0.8,0,1.6,0.2,2.4,0.6C274.4,412.9,275.3,413.6,276.2,414.7
			z"/>
		<path id="XMLID_875_" class="st3" d="M295.1,415.3l-2.3,2.1c-1.5-1.6-3.3-2.4-5.2-2.4c-1.6,0-3,0.5-4.1,1.6
			c-1.1,1.1-1.7,2.4-1.7,4c0,1.1,0.2,2.1,0.7,3s1.2,1.5,2.1,2c0.9,0.5,1.9,0.7,3,0.7c0.9,0,1.8-0.2,2.6-0.5c0.8-0.3,1.6-1,2.6-1.9
			l2.2,2.2c-1.2,1.2-2.4,2-3.5,2.5c-1.1,0.5-2.4,0.7-3.8,0.7c-2.6,0-4.8-0.8-6.5-2.5c-1.7-1.6-2.5-3.7-2.5-6.3
			c0-1.7,0.4-3.1,1.1-4.4c0.8-1.3,1.9-2.3,3.3-3.1c1.4-0.8,3-1.2,4.6-1.2c1.4,0,2.7,0.3,4,0.9C293,413.4,294.1,414.3,295.1,415.3z"
			/>
		<path id="XMLID_873_" class="st3" d="M297.7,412.4h3.2V429h-3.2V412.4z"/>
		<path id="XMLID_871_" class="st3" d="M304.5,412.4h9.2v3.1h-6v3h6v3h-6v4.4h6v3.1h-9.2V412.4z"/>
		<path id="XMLID_869_" class="st3" d="M316.7,412.4h3.1l7.2,10.9v-10.9h3.2V429h-3.1l-7.2-10.9V429h-3.2V412.4z"/>
		<path id="XMLID_296_" class="st3" d="M349.7,415.3l-2.3,2.1c-1.5-1.6-3.3-2.4-5.2-2.4c-1.6,0-3,0.5-4.1,1.6
			c-1.1,1.1-1.7,2.4-1.7,4c0,1.1,0.2,2.1,0.7,3s1.2,1.5,2.1,2c0.9,0.5,1.9,0.7,3,0.7c0.9,0,1.8-0.2,2.6-0.5c0.8-0.3,1.6-1,2.6-1.9
			l2.2,2.2c-1.2,1.2-2.4,2-3.5,2.5c-1.1,0.5-2.4,0.7-3.8,0.7c-2.6,0-4.8-0.8-6.5-2.5c-1.7-1.6-2.5-3.7-2.5-6.3
			c0-1.7,0.4-3.1,1.1-4.4c0.8-1.3,1.9-2.3,3.3-3.1c1.4-0.8,3-1.2,4.6-1.2c1.4,0,2.7,0.3,4,0.9C347.7,413.4,348.8,414.3,349.7,415.3z
			"/>
		<path id="XMLID_288_" class="st3" d="M352.5,412.4h9.2v3.1h-6v3h6v3h-6v4.4h6v3.1h-9.2V412.4z"/>
		<path id="XMLID_285_" class="st3" d="M373.7,414.7l-2.4,2.1c-0.8-1.1-1.7-1.7-2.6-1.7c-0.4,0-0.8,0.1-1,0.3
			c-0.3,0.2-0.4,0.5-0.4,0.8c0,0.3,0.1,0.5,0.3,0.8c0.3,0.3,1,1,2.4,2.1c1.2,1,2,1.6,2.2,1.9c0.7,0.6,1.1,1.3,1.4,1.9
			c0.3,0.6,0.4,1.2,0.4,1.9c0,1.4-0.5,2.5-1.4,3.4c-1,0.9-2.2,1.3-3.8,1.3c-1.2,0-2.3-0.3-3.2-0.9c-0.9-0.6-1.7-1.5-2.3-2.7l2.7-1.6
			c0.8,1.5,1.7,2.2,2.8,2.2c0.6,0,1-0.2,1.4-0.5c0.4-0.3,0.6-0.7,0.6-1.1c0-0.4-0.1-0.8-0.4-1.1c-0.3-0.4-0.9-1-1.9-1.7
			c-1.8-1.5-3-2.6-3.6-3.4c-0.5-0.8-0.8-1.6-0.8-2.4c0-1.2,0.4-2.1,1.3-3c0.9-0.8,2-1.2,3.3-1.2c0.8,0,1.6,0.2,2.4,0.6
			C371.9,412.9,372.8,413.6,373.7,414.7z"/>
		<path id="XMLID_283_" class="st3" d="M124.3,440.2h9.2v3.1h-6v3h6v3h-6v4.4h6v3.1h-9.2V440.2z"/>
		<path id="XMLID_281_" class="st3" d="M134.9,440.2h9.4v3.1h-3.1v13.5h-3.3v-13.5h-3V440.2z"/>
		<path id="XMLID_278_" class="st3" d="M151.4,440.2h9.4v3.1h-3.1v13.5h-3.3v-13.5h-3V440.2z"/>
		<path id="XMLID_276_" class="st3" d="M162.9,440.2h9.2v3.1h-6v3h6v3h-6v4.4h6v3.1h-9.2V440.2z"/>
		<path id="XMLID_272_" class="st3" d="M190.7,443.1l-2.3,2.1c-1.5-1.6-3.3-2.4-5.2-2.4c-1.6,0-3,0.5-4.1,1.6
			c-1.1,1.1-1.7,2.4-1.7,4c0,1.1,0.2,2.1,0.7,3c0.5,0.9,1.2,1.5,2.1,2c0.9,0.5,1.9,0.7,3,0.7c0.9,0,1.8-0.2,2.6-0.5
			c0.8-0.3,1.6-1,2.6-1.9l2.2,2.2c-1.2,1.2-2.4,2-3.5,2.5c-1.1,0.5-2.4,0.7-3.8,0.7c-2.6,0-4.8-0.8-6.5-2.5
			c-1.7-1.6-2.5-3.7-2.5-6.3c0-1.7,0.4-3.1,1.1-4.4c0.8-1.3,1.9-2.3,3.3-3.1c1.4-0.8,3-1.2,4.6-1.2c1.4,0,2.7,0.3,4,0.9
			C188.7,441.2,189.8,442,190.7,443.1z"/>
		<path id="XMLID_269_" class="st3" d="M193.5,440.2h3.3v6.3h5.7v-6.3h3.3v16.6h-3.3v-7.3h-5.7v7.3h-3.3V440.2z"/>
		<path id="XMLID_267_" class="st3" d="M209.6,440.2h3.1l7.2,10.9v-10.9h3.2v16.6H220l-7.2-10.9v10.9h-3.2V440.2z"/>
		<path id="XMLID_265_" class="st3" d="M226.8,440.2h3.2v16.6h-3.2V440.2z"/>
		<path id="XMLID_262_" class="st3" d="M248.1,454.4l2.9,3.7h-3.8l-1.5-1.9c-1.2,0.7-2.6,1-4.1,1c-2.5,0-4.7-0.9-6.3-2.6
			c-1.7-1.7-2.5-3.8-2.5-6.2c0-1.6,0.4-3,1.2-4.4c0.8-1.3,1.9-2.4,3.2-3.2c1.4-0.8,2.8-1.2,4.4-1.2c2.4,0,4.5,0.9,6.2,2.6
			c1.7,1.7,2.6,3.8,2.6,6.2C250.3,450.8,249.6,452.7,248.1,454.4z M246.1,451.8c0.7-1,1-2.1,1-3.3c0-1.6-0.5-2.9-1.6-4
			c-1.1-1.1-2.4-1.7-3.9-1.7c-1.6,0-2.9,0.5-4,1.6c-1.1,1.1-1.6,2.4-1.6,4.1c0,1.8,0.7,3.3,2,4.4c1,0.8,2.2,1.3,3.6,1.3
			c0.8,0,1.5-0.1,2.2-0.4l-3-3.8h3.8L246.1,451.8z"/>
		<path id="XMLID_260_" class="st3" d="M253.3,440.2h3.2v10.7c0,0.9,0.1,1.6,0.2,2c0.2,0.4,0.4,0.7,0.8,0.9c0.4,0.2,0.8,0.3,1.4,0.3
			c0.6,0,1.1-0.1,1.5-0.4c0.4-0.3,0.7-0.6,0.8-1c0.2-0.4,0.2-1.2,0.2-2.3v-10.4h3.2v9.9c0,1.7-0.1,2.8-0.3,3.5
			c-0.2,0.6-0.6,1.3-1.1,1.9c-0.5,0.6-1.2,1-1.9,1.3c-0.7,0.3-1.5,0.4-2.5,0.4c-1.2,0-2.3-0.3-3.2-0.8c-0.9-0.6-1.6-1.2-1.9-2.1
			c-0.4-0.8-0.6-2.2-0.6-4.2V440.2z"/>
		<path id="XMLID_258_" class="st3" d="M268.5,440.2h9.2v3.1h-6v3h6v3h-6v4.4h6v3.1h-9.2V440.2z"/>
		<path id="XMLID_256_" class="st3" d="M289.6,442.4l-2.4,2.1c-0.8-1.1-1.7-1.7-2.6-1.7c-0.4,0-0.8,0.1-1,0.3s-0.4,0.5-0.4,0.8
			c0,0.3,0.1,0.5,0.3,0.8c0.3,0.3,1,1,2.4,2.1c1.2,1,2,1.6,2.2,1.9c0.7,0.6,1.1,1.3,1.4,1.9c0.3,0.6,0.4,1.2,0.4,1.9
			c0,1.4-0.5,2.5-1.4,3.4c-1,0.9-2.2,1.3-3.8,1.3c-1.2,0-2.3-0.3-3.2-0.9c-0.9-0.6-1.7-1.5-2.3-2.7l2.7-1.6c0.8,1.5,1.7,2.2,2.8,2.2
			c0.6,0,1-0.2,1.4-0.5c0.4-0.3,0.6-0.7,0.6-1.1c0-0.4-0.1-0.8-0.4-1.1c-0.3-0.4-0.9-1-1.9-1.7c-1.8-1.5-3-2.6-3.6-3.4
			c-0.5-0.8-0.8-1.6-0.8-2.4c0-1.2,0.4-2.1,1.3-3c0.9-0.8,2-1.2,3.3-1.2c0.8,0,1.6,0.2,2.4,0.6C287.9,440.7,288.7,441.4,289.6,442.4
			z"/>
		<path id="XMLID_254_" class="st3" d="M308.4,442.4l-2.4,2.1c-0.8-1.1-1.7-1.7-2.6-1.7c-0.4,0-0.8,0.1-1,0.3s-0.4,0.5-0.4,0.8
			c0,0.3,0.1,0.5,0.3,0.8c0.3,0.3,1,1,2.4,2.1c1.2,1,2,1.6,2.2,1.9c0.7,0.6,1.1,1.3,1.4,1.9c0.3,0.6,0.4,1.2,0.4,1.9
			c0,1.4-0.5,2.5-1.4,3.4c-1,0.9-2.2,1.3-3.8,1.3c-1.2,0-2.3-0.3-3.2-0.9c-0.9-0.6-1.7-1.5-2.3-2.7l2.7-1.6c0.8,1.5,1.7,2.2,2.8,2.2
			c0.6,0,1-0.2,1.4-0.5c0.4-0.3,0.6-0.7,0.6-1.1c0-0.4-0.1-0.8-0.4-1.1c-0.3-0.4-0.9-1-1.9-1.7c-1.8-1.5-3-2.6-3.6-3.4
			c-0.5-0.8-0.8-1.6-0.8-2.4c0-1.2,0.4-2.1,1.3-3c0.9-0.8,2-1.2,3.3-1.2c0.8,0,1.6,0.2,2.4,0.6C306.7,440.7,307.5,441.4,308.4,442.4
			z"/>
		<path id="XMLID_252_" class="st3" d="M311.8,440.2h9.2v3.1h-6v3h6v3h-6v4.4h6v3.1h-9.2V440.2z"/>
		<path id="XMLID_250_" class="st3" d="M322.4,440.2h9.4v3.1h-3.1v13.5h-3.3v-13.5h-3V440.2z"/>
		<path id="XMLID_248_" class="st3" d="M332.3,440.2h9.4v3.1h-3.1v13.5h-3.3v-13.5h-3V440.2z"/>
		<path id="XMLID_245_" class="st3" d="M349,440.2h3.3l6.5,16.6h-3.4l-1.3-3.4h-6.9l-1.4,3.4h-3.3L349,440.2z M350.6,444.6l-2.3,5.7
			h4.5L350.6,444.6z"/>
		<path id="XMLID_243_" class="st3" d="M359.6,440.2h9.4v3.1h-3.1v13.5h-3.3v-13.5h-3V440.2z"/>
	</g>
	<g id="XMLID_19_">
		<path id="XMLID_239_" class="st3" d="M177.4,339.9c-0.5-1.1-0.7-1.8-0.7-2.3c0-0.8,0.5-1.8,1.4-3c1-1.3,1.9-1.9,2.7-1.9
			c0.7,0,2.2,0.6,4.6,1.9c2.3,1.3,3.5,2.7,3.5,4.3c0,1-0.3,2.2-0.9,3.6c-0.6,1.4-1.1,2.2-1.6,2.5c-0.4,0.3-1.2,0.5-2.2,0.5
			c-0.6,0-1.8-0.1-3.7-0.2c-1.8-0.2-2.9-0.3-3.5-0.3c-1,0-1.6,0.2-1.8,0.6c-0.2,0.4-0.3,1.5-0.3,3.4c0,0.7,0.1,2.3,0.2,4.9
			c0.1,1.7,0.1,2.6,0.1,2.9c0,1.7-0.2,3.4-0.5,5c-0.3,1.6-0.7,2.4-1.2,2.4c-0.3,0-0.6-0.3-0.7-0.9c-0.1-0.6-0.2-2-0.3-4.1l-0.3-7.5
			l-0.2-6.6c0-1.2,0.4-2.3,1.2-3.4c0.8-1.1,2-1.7,3.6-1.7C177.1,339.8,177.2,339.8,177.4,339.9z M178.9,340l7.4,0.8h0.2
			c0.3,0,0.4-0.1,0.4-0.4c0-0.3-0.7-1-2.2-1.9c-1.5-0.9-3.1-1.4-4.9-1.4c-0.9,0-1.4,0.3-1.4,0.8C178.5,338.3,178.6,339,178.9,340z"
			/>
		<path id="XMLID_236_" class="st3" d="M202.1,348.1c-4.1,0-6.8-0.3-8.1-0.8c-1.3-0.5-1.9-1.5-1.9-2.9c0-1.7,0.6-3.9,1.8-6.7
			c1.2-2.8,2.6-4.2,4.3-4.2c3.1,0,5,2.9,5.9,8.8h4.5v5.9h-4.8c-0.3,2-0.7,3.8-1.3,5.6c-0.6,1.7-1.3,3.2-2.2,4.3
			c-0.8,1.1-1.4,1.9-1.8,2.1c-0.4,0.3-0.8,0.4-1.2,0.4c-2,0-3.9-0.1-5.8-0.3c-1.9-0.2-2.8-0.5-2.8-0.9c0-0.3,1-0.9,3.1-1.8
			c2.1-0.9,4.3-2.2,6.6-4C200.8,351.9,202,350.1,202.1,348.1z M201.2,342.3c-1.2-2.3-2.6-3.5-4.3-3.5c-0.7,0-1.2,0.2-1.7,0.7
			c-0.5,0.5-0.7,0.9-0.7,1.4c0,1,1.5,1.4,4.5,1.4H201.2z"/>
		<path id="XMLID_234_" class="st3" d="M212.3,325c2.2-2.1,3.4-3.1,3.7-3.1c0.4,0,0.5,0.5,0.5,1.6c0,1.8-0.1,4.5-0.3,8
			c-0.1,2.6-0.2,4.4-0.2,5.5c0,1.9,0.2,3.3,0.6,4.1c0.4,0.8,1.1,1.2,2.2,1.2h1.3v5.9h-1.7c-1.7,0-3.1-0.9-4.2-2.8
			c-1.2,1.8-2.8,2.8-4.9,2.8h-1.1v-5.9h1c1.1,0,1.9-0.2,2.4-0.7c0.5-0.5,0.8-1.3,0.9-2.5c0.1-1.2,0.1-4.1,0.1-8.8
			C212.5,328.2,212.5,326.4,212.3,325z"/>
		<path id="XMLID_184_" class="st3" d="M225.3,339.9c-1.1-1-2.2-2-3.6-2.8c-0.5-0.3-0.8-0.5-0.8-0.6c0-0.5,0.5-1.2,1.6-2.1
			c1.1-0.9,2.7-1.4,4.8-1.4c1.4,0,2.6,0.3,3.5,0.8c0.9,0.5,1.4,1.3,1.4,2.2c0,0.7-0.3,1.3-0.9,1.9c-0.6,0.6-1.7,1.2-3.3,2
			c1.6,1.6,3.4,2.5,5.5,2.5v5.9h-0.4c-1.6,0-2.9-0.4-3.9-1.3c-1-0.9-1.9-2.2-2.7-4.1c-0.7,1.8-1.5,3.1-2.6,4
			c-1.1,0.9-2.2,1.4-3.4,1.4h-1.1v-5.9c0.1,0,0.3,0,0.4,0C221.9,342.3,223.7,341.5,225.3,339.9z"/>
		<path id="XMLID_180_" class="st3" d="M233.3,342.3h1.3c1,0,1.9-0.2,2.6-0.7s1.1-1.1,1.1-2c0-1.2-0.3-3.3-0.9-6.4l-1.3-6.7
			c0-0.1,0.1-0.3,0.3-0.6l1.9-2.4c0.6-0.7,1-1,1.2-1c0.2,0,0.5,0.4,0.8,1.2c0.4,1.2,1,2.7,1.8,4.5c0.1,0.2,0.1,0.4,0.1,0.5
			c0,0.2-0.1,0.2-0.2,0.2c-0.2,0-0.5-0.1-0.9-0.3c-0.2-0.1-0.3-0.1-0.4-0.1c0,0.4,0,1.1,0.1,2c0,0.6,0,1,0,1.2v4
			c0,2.7-0.1,4.8-0.4,6.5c-0.3,1.6-0.8,2.9-1.5,3.8c-0.7,0.9-1.4,1.5-2.2,1.7c-0.7,0.2-1.7,0.3-2.8,0.3h-0.4V342.3z"/>
		<path id="XMLID_176_" class="st3" d="M246.4,325.5c3.4-2.7,5.3-4,5.7-4c0.1,0,0.2,0.1,0.2,0.4l-0.5,5.9l-1.2,15.9
			c-0.1,1.9-0.3,3.1-0.4,3.5c-0.1,0.5-0.3,0.7-0.6,0.7c-0.2,0-0.4-0.2-0.6-0.5c-0.1-0.4-0.5-3-1.1-7.8L246.4,325.5z"/>
		<path id="XMLID_172_" class="st3" d="M267.3,322.4l2.5,2.5l2.5-2.5l2.7,2.7l-2.7,2.7l-2.5-2.6l-2.5,2.6l-2.7-2.7L267.3,322.4z
			 M272.2,333.9c-0.2-1.2-0.3-1.9-0.3-2.2c0-0.3,0.4-1,1.3-2.2c0.9-1.2,1.4-1.8,1.6-1.8c0.2,0,0.4,0.8,0.6,2.4l0.8,5.9
			c0.4,2.5,0.8,4.2,1.2,5c0.5,0.8,1.1,1.2,2,1.2h0.7v5.9h-1.2c-1.8,0-3.1-0.5-3.9-1.4s-1.4-2.4-1.8-4.6l-0.8,1.3
			c-0.5,0.8-0.9,1.2-1.1,1.2c-0.3,0-1.3-0.3-3-0.8c-1.7-0.5-2.7-0.9-3-1.2c-0.3-0.3-0.4-0.7-0.4-1.1c0-0.4,0.1-1,0.3-1.9
			c0.2-0.9,0.6-1.6,1.1-2.2C266.9,337.1,268.9,335.8,272.2,333.9z M267.7,339.2c1.3,0.7,3.1,1.3,5.5,1.7c-0.5-2.6-0.7-4.2-0.7-4.8
			C270.3,337.3,268.8,338.3,267.7,339.2z"/>
		<path id="XMLID_169_" class="st3" d="M279.8,342.3h0.8c2.4,0,3.9-1.5,4.5-4.6c0.1-0.8,0.3-1.2,0.5-1.2c0.3,0,0.5,0.4,0.6,1.2
			c0.5,3,2,4.6,4.3,4.6h1v5.9c-2.1,0-3.6-0.5-4.4-1.5c-0.8-1-1.3-2-1.6-3.2c-0.5,1.7-1.2,2.9-2,3.6c-0.9,0.7-2.2,1.1-3.9,1.1V342.3z
			 M283.5,350.5l2.5,2.6l2.5-2.5l2.4,2.7l-2.4,2.7l-2.5-2.6l-2.4,2.5l-2.5-2.7L283.5,350.5z"/>
		<path id="XMLID_167_" class="st3" d="M295.5,325c2.2-2.1,3.4-3.1,3.7-3.1c0.4,0,0.5,0.5,0.5,1.6c0,1.8-0.1,4.5-0.3,8
			c-0.1,2.6-0.2,4.4-0.2,5.5c0,1.9,0.2,3.3,0.6,4.1c0.4,0.8,1.1,1.2,2.2,1.2h1.3v5.9h-1.7c-1.7,0-3.1-0.9-4.2-2.8
			c-1.2,1.8-2.8,2.8-4.9,2.8h-1.1v-5.9h1c1.1,0,1.9-0.2,2.4-0.7c0.5-0.5,0.8-1.3,0.9-2.5c0.1-1.2,0.1-4.1,0.1-8.8
			C295.7,328.2,295.7,326.4,295.5,325z"/>
		<path id="XMLID_165_" class="st3" d="M323.7,320.5v3.9c-4.7,1.9-9.8,4.1-15,6.6c1.8,3.4,2.8,5.6,3,6.4c0.2,0.8,0.3,1.6,0.3,2.4
			c0,2.2-0.6,4.2-1.9,5.9c-1.3,1.7-3.2,2.5-5.7,2.5h-1.6v-5.9h2.4c1.5,0,2.6-0.1,3.3-0.4c0.7-0.3,1.1-0.6,1.1-1
			c0-0.4-0.4-1.2-1.1-2.5l-3.4-5.6c-0.2-0.3-0.3-0.6-0.3-0.8c0-0.2,0-0.3,0.1-0.5l0.9-2.9c0.1-0.4,0.3-0.7,0.6-0.9
			c0.3-0.2,2.2-1.1,5.7-2.6C315.7,323.7,319.5,322.2,323.7,320.5z"/>
		<path id="XMLID_162_" class="st3" d="M159.6,373.7c0.1-0.1,0.2-0.4,0.3-0.7c0.3-0.8,0.6-1.2,0.7-1.2c0.1,0,0.5,0.3,1.1,0.9
			c0.6,0.6,1.1,1.5,1.6,2.6c0.5,1.1,0.7,2.4,0.7,3.9c0,3.1-1.1,5.7-3.2,7.9c-2.1,2.1-6.9,3.2-14.3,3.2c-5.3,0-8.9-0.7-10.9-2
			s-3-3.5-3-6.4c0-1.6,0.2-3,0.6-4.3c0.4-1.3,0.8-1.9,1.1-1.9c0.3,0,0.5,0.2,0.5,0.7c0,0.2,0,0.5-0.1,1c-0.1,0.5-0.1,0.9-0.1,1.2
			c0,2,0.9,3.4,2.7,4.3c1.8,0.9,5.1,1.4,10,1.4c4.5,0,7.9-0.3,10.4-0.9c2.5-0.6,3.7-1.2,3.7-1.9c0-0.8-0.9-2-2.7-3.6
			c-0.6-0.5-0.9-0.8-0.9-0.9c0-0.1,0.1-0.4,0.3-0.8c0.1-0.1,0.1-0.2,0.1-0.2L159.6,373.7z M145.5,365.5l2.5,2.5l2.5-2.5l2.7,2.7
			l-2.7,2.7l-2.6-2.5l-2.5,2.6l-2.7-2.7L145.5,365.5z"/>
		<path id="XMLID_160_" class="st3" d="M175.7,388.7h-1.4c-4,0-6-3-6-9.1c0-0.4,0-1.4,0.1-3c0.1-2.1,0.1-3.7,0.1-4.6
			c0-2-0.1-4.2-0.2-6.6c2.1-2.1,3.3-3.2,3.7-3.2c0.2,0,0.4,0.2,0.4,0.5c0.1,0.3,0.1,0.9,0.1,1.8l-0.2,3.7l-0.3,6.3
			c-0.1,1.4-0.1,2.5-0.1,3.3c0,3.2,0.9,4.9,2.7,4.9l1.1,0V388.7z"/>
		<path id="XMLID_157_" class="st3" d="M183.5,368.9c0.1,0.3,0.2,0.5,0.2,0.7c0,0.2-0.1,0.3-0.3,0.3c-0.3,0-0.7-0.2-1.3-0.5
			c0,4.3-0.4,8.2-1.3,11.6c5.5-4.7,10.1-7,13.9-7c1.3,0,2.3,0.3,3.1,1c0.8,0.7,1.2,1.6,1.2,2.7c0,1.2-0.7,2.8-2.1,4.5
			c0.6,0.4,1.4,0.6,2.4,0.6h1.6v5.9h-1.6c-1.1,0-2.1-0.3-3-1c-1-0.7-1.7-1.6-2.2-2.8c-3.1,2.5-7.6,3.8-13.4,3.8h-5.3v-5.9h3.5
			c0.4-1.4,0.6-2.9,0.6-4.6c0-2.9-0.6-6.2-1.8-9.9c-0.1-0.4-0.2-0.7-0.2-0.7c0-0.3,0.2-0.6,0.6-1.1l2.3-2.7c0.3-0.3,0.5-0.4,0.7-0.4
			c0.2,0,0.3,0.2,0.5,0.5c0,0.1,0,0.2,0.1,0.2L183.5,368.9z M191.2,377.6c-1.4,0-3,0.5-4.9,1.4c-1.8,0.9-3.6,2.2-5.3,3.8
			c0.1,0.1,0.5,0.1,1.1,0.1h1.2c3.4,0,6-0.1,7.8-0.4c1.8-0.3,2.9-0.6,3.4-1c0.5-0.4,0.7-0.8,0.7-1.2c0-0.7-0.4-1.3-1.2-1.8
			C193.2,377.9,192.3,377.6,191.2,377.6z"/>
		<path id="XMLID_155_" class="st3" d="M200.5,382.8h1.7c1.2,0,2-0.2,2.4-0.6c0.4-0.4,0.8-1.1,1-2.2c0.1-0.7,0.3-1.1,0.6-1.1
			c0.3,0,0.4,0.3,0.5,1c0.3,1.9,1.3,2.9,3,2.9c0.8,0,1.4-0.2,1.8-0.7c0.4-0.4,0.7-1.1,0.9-2c0.2-0.8,0.4-1.2,0.6-1.2
			s0.4,0.3,0.5,0.9c0.3,2,1.6,3,3.7,3c0.8,0,1.5-0.1,1.9-0.4c0.5-0.3,0.7-0.7,0.7-1.1c0-0.6-0.5-1.6-1.4-3c-0.2-0.4-0.4-0.6-0.4-0.6
			c0-0.1,0.1-0.3,0.3-0.6l1.4-2c0.1-0.2,0.2-0.2,0.3-0.2c0.4,0,0.9,0.8,1.3,2.4c0.4,1.6,0.6,3.3,0.4,5.1c-0.1,1.8-0.6,3.3-1.5,4.6
			c-0.9,1.3-1.9,1.9-3.2,1.9c-1.4,0-2.6-0.8-3.7-2.5c-1,1.7-2.2,2.5-3.6,2.5c-1.5,0-2.8-0.8-3.8-2.5c-1.2,1.7-2.7,2.5-4.5,2.5h-1
			V382.8z"/>
		<path id="XMLID_152_" class="st3" d="M260.1,373.7c0.1-0.1,0.2-0.4,0.3-0.7c0.3-0.8,0.6-1.2,0.7-1.2c0.1,0,0.5,0.3,1.1,0.9
			c0.6,0.6,1.1,1.5,1.6,2.6c0.5,1.1,0.7,2.4,0.7,3.9c0,3.1-1.1,5.7-3.2,7.9c-2.1,2.1-6.9,3.2-14.3,3.2c-5.3,0-8.9-0.7-10.9-2
			s-3-3.5-3-6.4c0-1.6,0.2-3,0.6-4.3c0.4-1.3,0.8-1.9,1.1-1.9c0.3,0,0.5,0.2,0.5,0.7c0,0.2,0,0.5-0.1,1c-0.1,0.5-0.1,0.9-0.1,1.2
			c0,2,0.9,3.4,2.7,4.3c1.8,0.9,5.1,1.4,10,1.4c4.5,0,7.9-0.3,10.4-0.9c2.5-0.6,3.7-1.2,3.7-1.9c0-0.8-0.9-2-2.7-3.6
			c-0.6-0.5-0.9-0.8-0.9-0.9c0-0.1,0.1-0.4,0.3-0.8c0.1-0.1,0.1-0.2,0.1-0.2L260.1,373.7z M246,365.5l2.5,2.5l2.5-2.5l2.7,2.7
			l-2.7,2.7l-2.6-2.5l-2.5,2.6l-2.7-2.7L246,365.5z"/>
		<path id="XMLID_150_" class="st3" d="M276.3,388.7h-1.4c-4,0-6-3-6-9.1c0-0.4,0-1.4,0.1-3c0.1-2.1,0.1-3.7,0.1-4.6
			c0-2-0.1-4.2-0.2-6.6c2.1-2.1,3.3-3.2,3.7-3.2c0.2,0,0.4,0.2,0.4,0.5s0.1,0.9,0.1,1.8l-0.2,3.7l-0.3,6.3c-0.1,1.4-0.1,2.5-0.1,3.3
			c0,3.2,0.9,4.9,2.7,4.9l1.1,0V388.7z"/>
		<path id="XMLID_147_" class="st3" d="M275.9,382.8h0.8c2.4,0,3.9-1.5,4.5-4.6c0.1-0.8,0.3-1.2,0.5-1.2c0.3,0,0.5,0.4,0.6,1.2
			c0.5,3,2,4.6,4.3,4.6h1v5.9c-2.1,0-3.6-0.5-4.4-1.5c-0.8-1-1.3-2-1.6-3.2c-0.5,1.7-1.2,2.9-2,3.6c-0.9,0.7-2.2,1.1-3.9,1.1V382.8z
			 M279.5,391l2.5,2.6l2.5-2.5l2.4,2.7l-2.4,2.7l-2.5-2.6l-2.4,2.5l-2.5-2.7L279.5,391z"/>
		<path id="XMLID_144_" class="st3" d="M287.4,382.8h0.8c2.4,0,3.9-1.5,4.5-4.6c0.1-0.8,0.3-1.2,0.5-1.2c0.3,0,0.5,0.4,0.6,1.2
			c0.5,3,2,4.6,4.3,4.6h1v5.9c-2.1,0-3.6-0.5-4.4-1.5c-0.8-1-1.3-2-1.6-3.2c-0.5,1.7-1.2,2.9-2,3.6c-0.9,0.7-2.2,1.1-3.9,1.1V382.8z
			 M293.3,363.7l2.7,2.7l-2.7,2.7l-2.7-2.7L293.3,363.7z"/>
		<path id="XMLID_140_" class="st3" d="M302,382.8c-1.1-1.2-1.6-2.1-1.6-2.7c0-0.6,0.4-1.6,1.2-3c0.8-1.3,1.7-2.3,2.6-3
			c0.9-0.6,1.9-0.9,3-0.9c1.3,0,2.4,0.5,3,1.6c0.7,1,1,2.2,1,3.4c0,1.7-0.6,3.2-1.7,4.6h3.2v5.9h-1.1c-2.2,0-4.2-0.8-5.9-2.3
			c-1.8,1.5-3.7,2.3-5.7,2.3h-1.3v-5.9H302z M308.6,369.3l-2.6-2.6l-2.5,2.6l-2.7-2.7l2.6-2.8l2.5,2.6l2.5-2.5l2.7,2.7L308.6,369.3z
			 M306,382.3c2.3-0.7,3.5-1.5,3.5-2.3c0-0.5-0.4-1-1.2-1.6s-1.7-0.9-2.7-0.9c-0.7,0-1.5,0.2-2.2,0.6c-0.8,0.4-1.1,0.8-1.1,1.2
			c0,0.3,0.4,0.8,1.1,1.5C304.1,381.4,305,381.9,306,382.3z"/>
		<path id="XMLID_137_" class="st3" d="M312.5,382.8h0.8c2.4,0,3.9-1.5,4.5-4.6c0.1-0.8,0.3-1.2,0.5-1.2c0.3,0,0.5,0.4,0.6,1.2
			c0.5,3,2,4.6,4.3,4.6h1v5.9c-2.1,0-3.6-0.5-4.4-1.5c-0.8-1-1.3-2-1.6-3.2c-0.5,1.7-1.2,2.9-2,3.6c-0.9,0.7-2.2,1.1-3.9,1.1V382.8z
			 M316.2,368.3l2.3,2.5l2.4-2.5l2.6,2.8l-2.6,2.7l-2.3-2.6l-2.4,2.6l-2.5-2.7L316.2,368.3z"/>
		<path id="XMLID_135_" class="st3" d="M324,382.8h1.3c1,0,1.9-0.2,2.6-0.7c0.7-0.4,1.1-1.1,1.1-2c0-1.2-0.3-3.3-0.9-6.4l-1.3-6.7
			c0-0.1,0.1-0.3,0.3-0.6l1.9-2.4c0.6-0.7,1-1,1.2-1c0.2,0,0.5,0.4,0.8,1.2c0.4,1.2,1,2.7,1.8,4.5c0.1,0.2,0.1,0.4,0.1,0.5
			c0,0.2-0.1,0.2-0.2,0.2c-0.2,0-0.5-0.1-0.9-0.3c-0.2-0.1-0.3-0.1-0.4-0.1c0,0.4,0,1.1,0.1,2c0,0.6,0,1,0,1.2v4
			c0,2.7-0.1,4.8-0.4,6.5c-0.3,1.6-0.8,2.9-1.5,3.8c-0.7,0.9-1.4,1.5-2.2,1.7c-0.7,0.2-1.7,0.3-2.8,0.3H324V382.8z"/>
		<path id="XMLID_133_" class="st3" d="M337.1,366c3.4-2.7,5.3-4,5.7-4c0.1,0,0.2,0.1,0.2,0.4l-0.5,5.9l-1.2,15.9
			c-0.1,1.9-0.3,3.1-0.4,3.5c-0.1,0.5-0.3,0.7-0.6,0.7c-0.2,0-0.4-0.2-0.6-0.5c-0.1-0.4-0.5-3-1.1-7.8L337.1,366z"/>
		<path id="XMLID_23_" class="st3" d="M357,388.6H355c-3.2,0-5.3-0.3-6.5-0.9s-1.7-1.5-1.7-2.7c0-0.9,0.3-2.3,0.8-4.1
			c0.5-1.8,1.3-3.4,2.1-4.7c0.9-1.3,2-2,3.3-2c1.7,0,3.1,1.1,4.2,3.4c1.1,2.2,1.6,4.8,1.6,7.8c0,1.1-0.2,2.6-0.5,4.4
			c-0.3,1.8-0.8,3.6-1.5,5.5c-0.7,1.9-1.5,3.3-2.4,4.3c-0.9,1-1.4,1.5-1.7,1.6c-0.3,0.1-0.7,0.2-1.3,0.2c-1.4,0-3.1-0.1-5.1-0.3
			c-2-0.2-3-0.5-3-0.8c0-0.3,1.1-1,3.4-1.9c2.2-0.9,4.5-2.3,6.7-4.1C355.7,392.3,356.9,390.5,357,388.6z M356.1,383
			c-1.1-2.5-2.6-3.7-4.3-3.7c-0.7,0-1.3,0.3-1.8,0.7c-0.5,0.5-0.7,1-0.7,1.4C349.3,382.5,351.6,383,356.1,383z"/>
	</g>
</g>
</svg>
